<svg width="365" height="209" viewBox="0 0 365 209" fill="none" xmlns="http://www.w3.org/2000/svg">
<mask id="mask0" mask-type="alpha" maskUnits="userSpaceOnUse" x="0" y="0" width="365" height="209">
<path fill-rule="evenodd" clip-rule="evenodd" d="M0 0H365V209H0V0Z" fill="white"/>
</mask>
<g mask="url(#mask0)">
<path d="M15.54 17.83C17.3133 17.83 18.9467 18.0633 20.44 18.53C21.9333 18.95 23.0767 19.44 23.87 20C24.3367 20.3267 24.7567 20.49 25.13 20.49C25.55 20.49 25.9 20.28 26.18 19.86C26.5067 19.3933 26.7167 18.74 26.81 17.9H28.28C28.0933 20.28 28 24.3867 28 30.22H26.53C26.11 27.14 25.1767 24.5733 23.73 22.52C22.33 20.42 20.2767 19.37 17.57 19.37C16.17 19.37 15.0033 19.7667 14.07 20.56C13.1833 21.3533 12.74 22.45 12.74 23.85C12.74 25.4367 13.2767 26.8133 14.35 27.98C15.4233 29.1 17.1033 30.4767 19.39 32.11L21.42 33.58C24.2667 35.7267 26.3667 37.64 27.72 39.32C29.0733 41 29.75 43.1 29.75 45.62C29.75 47.6733 29.1433 49.4933 27.93 51.08C26.7633 52.6667 25.1767 53.88 23.17 54.72C21.1633 55.56 18.9467 55.98 16.52 55.98C13.9533 55.98 11.76 55.49 9.94 54.51C8.44667 53.7633 7.37333 53.2733 6.72 53.04C6.25333 52.9 5.83333 53.0633 5.46 53.53C5.13333 53.95 4.87667 54.6033 4.69 55.49H3.22C3.40667 52.83 3.5 48.1633 3.5 41.49H4.97C5.90333 50.0767 9.05333 54.37 14.42 54.37C15.7733 54.37 16.9167 53.9733 17.85 53.18C18.83 52.34 19.32 51.08 19.32 49.4C19.32 48.0933 19.0167 46.9267 18.41 45.9C17.85 44.8733 17.1267 43.9633 16.24 43.17C15.3533 42.3767 14.0233 41.28 12.25 39.88C10.15 38.2 8.54 36.8467 7.42 35.82C6.34667 34.7933 5.41333 33.58 4.62 32.18C3.87333 30.78 3.5 29.2167 3.5 27.49C3.5 24.5033 4.66667 22.1467 7 20.42C9.33333 18.6933 12.18 17.83 15.54 17.83ZM43.114 0.749997C45.074 0.749997 46.614 1.24 47.734 2.22C48.9007 3.15333 49.484 4.46 49.484 6.14C49.484 7.82 48.9007 9.15 47.734 10.13C46.614 11.0633 45.074 11.53 43.114 11.53C41.154 11.53 39.5907 11.0633 38.424 10.13C37.304 9.15 36.744 7.82 36.744 6.14C36.744 4.46 37.304 3.15333 38.424 2.22C39.5907 1.24 41.154 0.749997 43.114 0.749997ZM48.574 48.49C48.574 50.4033 48.9007 51.7333 49.554 52.48C50.254 53.18 51.4207 53.53 53.054 53.53V55C48.3873 54.8133 45.284 54.72 43.744 54.72C42.2973 54.72 39.054 54.8133 34.014 55V53.53C35.694 53.53 36.8607 53.18 37.514 52.48C38.1673 51.7333 38.494 50.4033 38.494 48.49V26.44C38.494 24.2933 38.1673 22.73 37.514 21.75C36.8607 20.77 35.694 20.28 34.014 20.28V18.81C35.5073 18.95 36.954 19.02 38.354 19.02C42.5073 19.02 45.914 18.6933 48.574 18.04V48.49ZM81.2241 17.83C83.6507 17.83 85.7974 18.4833 87.6641 19.79C89.5774 21.0967 91.0707 23.0567 92.1441 25.67C93.2174 28.2833 93.7541 31.48 93.7541 35.26C93.7541 41.9333 92.2841 47.0667 89.3441 50.66C86.4507 54.2067 82.5074 55.98 77.5141 55.98C76.1141 55.98 74.7841 55.7933 73.5241 55.42C72.3107 55.0467 71.2607 54.4867 70.3741 53.74V60.74C70.3741 62.7933 70.8874 64.2167 71.9141 65.01C72.9407 65.8033 74.5274 66.2 76.6741 66.2V67.67L74.7841 67.6C69.6041 67.46 66.3141 67.39 64.9141 67.39C63.5141 67.39 60.5741 67.4833 56.0941 67.67V66.2C57.6341 66.2 58.7074 65.85 59.3141 65.15C59.9674 64.4967 60.2941 63.26 60.2941 61.44V26.44C60.2941 24.2933 59.9441 22.73 59.2441 21.75C58.5907 20.77 57.4474 20.28 55.8141 20.28V18.81C57.3074 18.95 58.7541 19.02 60.1541 19.02C64.2141 19.02 67.6207 18.6933 70.3741 18.04V24.48C71.3541 22.3333 72.7774 20.7 74.6441 19.58C76.5107 18.4133 78.7041 17.83 81.2241 17.83ZM74.7841 54.09C77.7707 54.09 79.9174 52.62 81.2241 49.68C82.5307 46.6933 83.1841 42.3533 83.1841 36.66C83.1841 30.9667 82.6474 26.9067 81.5741 24.48C80.5474 22.0533 79.0541 20.84 77.0941 20.84C75.5074 20.84 74.0841 21.3767 72.8241 22.45C71.6107 23.5233 70.7941 25.0167 70.3741 26.93V52.2C71.4941 53.46 72.9641 54.09 74.7841 54.09ZM15.54 79.83C17.3133 79.83 18.9467 80.0633 20.44 80.53C21.9333 80.95 23.0767 81.44 23.87 82C24.3367 82.3267 24.7567 82.49 25.13 82.49C25.55 82.49 25.9 82.28 26.18 81.86C26.5067 81.3933 26.7167 80.74 26.81 79.9H28.28C28.0933 82.28 28 86.3867 28 92.22H26.53C26.11 89.14 25.1767 86.5733 23.73 84.52C22.33 82.42 20.2767 81.37 17.57 81.37C16.17 81.37 15.0033 81.7667 14.07 82.56C13.1833 83.3533 12.74 84.45 12.74 85.85C12.74 87.4367 13.2767 88.8133 14.35 89.98C15.4233 91.1 17.1033 92.4767 19.39 94.11L21.42 95.58C24.2667 97.7267 26.3667 99.64 27.72 101.32C29.0733 103 29.75 105.1 29.75 107.62C29.75 109.673 29.1433 111.493 27.93 113.08C26.7633 114.667 25.1767 115.88 23.17 116.72C21.1633 117.56 18.9467 117.98 16.52 117.98C13.9533 117.98 11.76 117.49 9.94 116.51C8.44667 115.763 7.37333 115.273 6.72 115.04C6.25333 114.9 5.83333 115.063 5.46 115.53C5.13333 115.95 4.87667 116.603 4.69 117.49H3.22C3.40667 114.83 3.5 110.163 3.5 103.49H4.97C5.90333 112.077 9.05333 116.37 14.42 116.37C15.7733 116.37 16.9167 115.973 17.85 115.18C18.83 114.34 19.32 113.08 19.32 111.4C19.32 110.093 19.0167 108.927 18.41 107.9C17.85 106.873 17.1267 105.963 16.24 105.17C15.3533 104.377 14.0233 103.28 12.25 101.88C10.15 100.2 8.54 98.8467 7.42 97.82C6.34667 96.7933 5.41333 95.58 4.62 94.18C3.87333 92.78 3.5 91.2167 3.5 89.49C3.5 86.5033 4.66667 84.1467 7 82.42C9.33333 80.6933 12.18 79.83 15.54 79.83ZM48.224 86.34C50.324 82 54.1273 79.83 59.634 79.83C63.274 79.83 65.8407 80.74 67.334 82.56C68.1273 83.4467 68.6873 84.6133 69.014 86.06C69.3873 87.46 69.574 89.3267 69.574 91.66V110.49C69.574 112.403 69.9007 113.733 70.554 114.48C71.2073 115.18 72.374 115.53 74.054 115.53V117C69.2007 116.813 66.1207 116.72 64.814 116.72C63.2273 116.72 60.194 116.813 55.714 117V115.53C57.114 115.53 58.094 115.18 58.654 114.48C59.214 113.733 59.494 112.403 59.494 110.49V88.72C59.494 86.8067 59.1673 85.36 58.514 84.38C57.9073 83.4 56.7873 82.91 55.154 82.91C53.194 82.91 51.5373 83.68 50.184 85.22C48.8773 86.7133 48.224 88.6267 48.224 90.96V110.49C48.224 112.403 48.504 113.733 49.064 114.48C49.624 115.18 50.604 115.53 52.004 115.53V117C47.524 116.813 44.6307 116.72 43.324 116.72C41.7373 116.72 38.5173 116.813 33.664 117V115.53C35.2973 115.53 36.4407 115.18 37.094 114.48C37.794 113.733 38.144 112.403 38.144 110.49V70.66C38.144 68.5133 37.794 66.95 37.094 65.97C36.4407 64.99 35.2973 64.5 33.664 64.5V63.03C35.1573 63.17 36.604 63.24 38.004 63.24C42.064 63.24 45.4707 62.9133 48.224 62.26V86.34ZM111.462 109.37C111.462 111.517 111.789 113.08 112.442 114.06C113.142 115.04 114.309 115.53 115.942 115.53V117C114.495 116.86 113.049 116.79 111.602 116.79C107.542 116.79 104.135 117.117 101.382 117.77V111.47C99.2352 115.81 95.4785 117.98 90.1119 117.98C86.6119 117.98 84.0685 117.07 82.4819 115.25C81.7352 114.363 81.1752 113.22 80.8019 111.82C80.4752 110.373 80.3119 108.483 80.3119 106.15V88.44C80.3119 86.2933 79.9619 84.73 79.2619 83.75C78.6085 82.77 77.4652 82.28 75.8319 82.28V80.81C77.2785 80.95 78.7252 81.02 80.1719 81.02C84.2319 81.02 87.6385 80.6933 90.3919 80.04V109.02C90.3919 110.98 90.6719 112.45 91.2319 113.43C91.8385 114.41 92.9585 114.9 94.5919 114.9C96.4585 114.9 98.0452 114.13 99.3519 112.59C100.705 111.003 101.382 109.067 101.382 106.78V88.44C101.382 86.2933 101.032 84.73 100.332 83.75C99.6785 82.77 98.5352 82.28 96.9019 82.28V80.81C98.3952 80.95 99.8419 81.02 101.242 81.02C105.302 81.02 108.709 80.6933 111.462 80.04V109.37ZM137.253 79.83C138.98 79.83 140.613 80.0167 142.153 80.39C143.693 80.7633 144.976 81.2767 146.003 81.93C147.216 82.6767 148.15 83.6333 148.803 84.8C149.503 85.92 149.853 87.1567 149.853 88.51C149.853 90.1433 149.34 91.4967 148.313 92.57C147.286 93.5967 145.956 94.11 144.323 94.11C142.69 94.11 141.383 93.6433 140.403 92.71C139.423 91.7767 138.933 90.5167 138.933 88.93C138.933 87.53 139.376 86.3167 140.263 85.29C141.15 84.2633 142.246 83.5633 143.553 83.19C143.18 82.6767 142.596 82.28 141.803 82C141.056 81.6733 140.24 81.51 139.353 81.51C136.553 81.51 134.36 83.05 132.773 86.13C131.233 89.1633 130.463 93.1533 130.463 98.1C130.463 103.093 131.35 106.687 133.123 108.88C134.896 111.073 137.113 112.17 139.773 112.17C141.36 112.17 142.946 111.75 144.533 110.91C146.166 110.07 147.636 108.6 148.943 106.5L150.133 106.92C149.2 109.953 147.566 112.567 145.233 114.76C142.9 116.907 139.89 117.98 136.203 117.98C131.396 117.98 127.476 116.393 124.443 113.22C121.41 110.047 119.893 105.333 119.893 99.08C119.893 94.9733 120.64 91.4733 122.133 88.58C123.626 85.6867 125.68 83.5167 128.293 82.07C130.906 80.5767 133.893 79.83 137.253 79.83ZM189.34 111.89C190.086 113.01 190.693 113.85 191.16 114.41C191.626 114.923 192.233 115.297 192.98 115.53V117C189.246 116.813 186.796 116.72 185.63 116.72C184.09 116.72 181.08 116.813 176.6 117V115.53C177.253 115.53 177.766 115.413 178.14 115.18C178.513 114.947 178.7 114.62 178.7 114.2C178.7 113.967 178.583 113.617 178.35 113.15L171.42 100.62C170.953 99.8267 170.463 99.29 169.95 99.01C169.436 98.73 168.783 98.5433 167.99 98.45V110.49C167.99 112.403 168.293 113.733 168.9 114.48C169.506 115.18 170.603 115.53 172.19 115.53V117C167.523 116.813 164.49 116.72 163.09 116.72C161.503 116.72 158.283 116.813 153.43 117V115.53C155.063 115.53 156.206 115.18 156.86 114.48C157.56 113.733 157.91 112.403 157.91 110.49V70.59C157.91 68.4433 157.56 66.88 156.86 65.9C156.206 64.92 155.063 64.43 153.43 64.43V62.96C154.923 63.1 156.37 63.17 157.77 63.17C161.83 63.17 165.236 62.8433 167.99 62.19V97.12C168.923 97.0267 169.716 96.84 170.37 96.56C171.07 96.28 171.676 95.86 172.19 95.3L177.51 90.12C179.05 88.58 179.82 87.1567 179.82 85.85C179.82 84.7767 179.33 83.9367 178.35 83.33C177.37 82.6767 176.063 82.3033 174.43 82.21V80.81C176.996 80.95 179.726 81.02 182.62 81.02C186.493 81.02 189.223 80.95 190.81 80.81V82.21C188.056 82.8167 185.14 84.6133 182.06 87.6L177.58 92.22L189.34 111.89ZM15.54 141.83C17.3133 141.83 18.9467 142.063 20.44 142.53C21.9333 142.95 23.0767 143.44 23.87 144C24.3367 144.327 24.7567 144.49 25.13 144.49C25.55 144.49 25.9 144.28 26.18 143.86C26.5067 143.393 26.7167 142.74 26.81 141.9H28.28C28.0933 144.28 28 148.387 28 154.22H26.53C26.11 151.14 25.1767 148.573 23.73 146.52C22.33 144.42 20.2767 143.37 17.57 143.37C16.17 143.37 15.0033 143.767 14.07 144.56C13.1833 145.353 12.74 146.45 12.74 147.85C12.74 149.437 13.2767 150.813 14.35 151.98C15.4233 153.1 17.1033 154.477 19.39 156.11L21.42 157.58C24.2667 159.727 26.3667 161.64 27.72 163.32C29.0733 165 29.75 167.1 29.75 169.62C29.75 171.673 29.1433 173.493 27.93 175.08C26.7633 176.667 25.1767 177.88 23.17 178.72C21.1633 179.56 18.9467 179.98 16.52 179.98C13.9533 179.98 11.76 179.49 9.94 178.51C8.44667 177.763 7.37333 177.273 6.72 177.04C6.25333 176.9 5.83333 177.063 5.46 177.53C5.13333 177.95 4.87667 178.603 4.69 179.49H3.22C3.40667 176.83 3.5 172.163 3.5 165.49H4.97C5.90333 174.077 9.05333 178.37 14.42 178.37C15.7733 178.37 16.9167 177.973 17.85 177.18C18.83 176.34 19.32 175.08 19.32 173.4C19.32 172.093 19.0167 170.927 18.41 169.9C17.85 168.873 17.1267 167.963 16.24 167.17C15.3533 166.377 14.0233 165.28 12.25 163.88C10.15 162.2 8.54 160.847 7.42 159.82C6.34667 158.793 5.41333 157.58 4.62 156.18C3.87333 154.78 3.5 153.217 3.5 151.49C3.5 148.503 4.66667 146.147 7 144.42C9.33333 142.693 12.18 141.83 15.54 141.83ZM43.114 124.75C45.074 124.75 46.614 125.24 47.734 126.22C48.9007 127.153 49.484 128.46 49.484 130.14C49.484 131.82 48.9007 133.15 47.734 134.13C46.614 135.063 45.074 135.53 43.114 135.53C41.154 135.53 39.5907 135.063 38.424 134.13C37.304 133.15 36.744 131.82 36.744 130.14C36.744 128.46 37.304 127.153 38.424 126.22C39.5907 125.24 41.154 124.75 43.114 124.75ZM48.574 172.49C48.574 174.403 48.9007 175.733 49.554 176.48C50.254 177.18 51.4207 177.53 53.054 177.53V179C48.3873 178.813 45.284 178.72 43.744 178.72C42.2973 178.72 39.054 178.813 34.014 179V177.53C35.694 177.53 36.8607 177.18 37.514 176.48C38.1673 175.733 38.494 174.403 38.494 172.49V150.44C38.494 148.293 38.1673 146.73 37.514 145.75C36.8607 144.77 35.694 144.28 34.014 144.28V142.81C35.5073 142.95 36.954 143.02 38.354 143.02C42.5073 143.02 45.914 142.693 48.574 142.04V172.49ZM81.2241 141.83C83.6507 141.83 85.7974 142.483 87.6641 143.79C89.5774 145.097 91.0707 147.057 92.1441 149.67C93.2174 152.283 93.7541 155.48 93.7541 159.26C93.7541 165.933 92.2841 171.067 89.3441 174.66C86.4507 178.207 82.5074 179.98 77.5141 179.98C76.1141 179.98 74.7841 179.793 73.5241 179.42C72.3107 179.047 71.2607 178.487 70.3741 177.74V184.74C70.3741 186.793 70.8874 188.217 71.9141 189.01C72.9407 189.803 74.5274 190.2 76.6741 190.2V191.67L74.7841 191.6C69.6041 191.46 66.3141 191.39 64.9141 191.39C63.5141 191.39 60.5741 191.483 56.0941 191.67V190.2C57.6341 190.2 58.7074 189.85 59.3141 189.15C59.9674 188.497 60.2941 187.26 60.2941 185.44V150.44C60.2941 148.293 59.9441 146.73 59.2441 145.75C58.5907 144.77 57.4474 144.28 55.8141 144.28V142.81C57.3074 142.95 58.7541 143.02 60.1541 143.02C64.2141 143.02 67.6207 142.693 70.3741 142.04V148.48C71.3541 146.333 72.7774 144.7 74.6441 143.58C76.5107 142.413 78.7041 141.83 81.2241 141.83ZM74.7841 178.09C77.7707 178.09 79.9174 176.62 81.2241 173.68C82.5307 170.693 83.1841 166.353 83.1841 160.66C83.1841 154.967 82.6474 150.907 81.5741 148.48C80.5474 146.053 79.0541 144.84 77.0941 144.84C75.5074 144.84 74.0841 145.377 72.8241 146.45C71.6107 147.523 70.7941 149.017 70.3741 150.93V176.2C71.4941 177.46 72.9641 178.09 74.7841 178.09Z" fill="#E1B29B"/>
</g>
</svg>
