<svg width="731" height="151" viewBox="0 0 731 151" fill="none" xmlns="http://www.w3.org/2000/svg">
<mask id="mask0" mask-type="alpha" maskUnits="userSpaceOnUse" x="0" y="0" width="731" height="151">
<path fill-rule="evenodd" clip-rule="evenodd" d="M0 0H731V151H0V0Z" fill="white"/>
</mask>
<g mask="url(#mask0)">
<path d="M4.914 17.002V28H2.002V17.002H4.914ZM1.872 13.076C1.872 12.6427 2.04533 12.2787 2.392 11.984C2.73867 11.672 3.12867 11.516 3.562 11.516C3.978 11.516 4.35067 11.672 4.68 11.984C5.02667 12.2787 5.2 12.6427 5.2 13.076C5.2 13.5093 5.02667 13.8733 4.68 14.168C4.35067 14.4627 3.978 14.61 3.562 14.61C3.12867 14.61 2.73867 14.4627 2.392 14.168C2.04533 13.8733 1.872 13.5093 1.872 13.076ZM18.0083 26.986C17.5229 27.3847 16.9249 27.7053 16.2143 27.948C15.5209 28.1733 14.8189 28.286 14.1083 28.286C12.8949 28.286 11.8203 28.052 10.8843 27.584C9.96558 27.116 9.25492 26.4487 8.75225 25.582C8.24958 24.698 7.99825 23.6667 7.99825 22.488C7.99825 21.3267 8.26692 20.3127 8.80425 19.446C9.34158 18.562 10.0523 17.886 10.9363 17.418C11.8376 16.95 12.7996 16.716 13.8223 16.716C15.5556 16.716 16.9856 17.184 18.1123 18.12L16.6563 20.018C16.3269 19.758 15.9369 19.5413 15.4863 19.368C15.0529 19.1773 14.5849 19.082 14.0823 19.082C13.1983 19.082 12.4443 19.4113 11.8203 20.07C11.2136 20.7113 10.9103 21.5173 10.9103 22.488C10.9103 23.4587 11.2309 24.2733 11.8723 24.932C12.5309 25.5733 13.3629 25.894 14.3683 25.894C15.2349 25.894 15.9629 25.6513 16.5523 25.166L18.0083 26.986ZM26.2982 25.79C27.1129 25.79 27.9362 25.504 28.7682 24.932L30.0942 27.09C29.5049 27.454 28.8722 27.7487 28.1962 27.974C27.5202 28.182 26.8702 28.286 26.2462 28.286C24.9809 28.286 23.8802 28.0347 22.9442 27.532C22.0255 27.0293 21.3149 26.336 20.8122 25.452C20.3269 24.568 20.0842 23.554 20.0842 22.41C20.0842 21.3353 20.3615 20.3473 20.9162 19.446C21.4709 18.5447 22.2249 17.834 23.1782 17.314C24.1315 16.7767 25.1715 16.508 26.2982 16.508C27.7889 16.508 29.0282 16.95 30.0162 17.834C31.0042 18.7007 31.6629 19.9313 31.9922 21.526L23.5162 24.386C23.8109 24.8367 24.2009 25.1833 24.6862 25.426C25.1715 25.6687 25.7089 25.79 26.2982 25.79ZM26.0642 18.796C25.1455 18.796 24.3915 19.1167 23.8022 19.758C23.2302 20.3993 22.9442 21.2313 22.9442 22.254C22.9442 22.4447 22.9529 22.592 22.9702 22.696L28.7422 20.642C28.5169 20.1047 28.1875 19.6627 27.7542 19.316C27.3209 18.9693 26.7575 18.796 26.0642 18.796ZM46.5835 7.72V28H43.6715V26.518C42.4581 27.6967 41.0195 28.286 39.3555 28.286C38.3328 28.286 37.4055 28.0433 36.5735 27.558C35.7588 27.0727 35.1175 26.3793 34.6495 25.478C34.1815 24.5767 33.9475 23.528 33.9475 22.332C33.9475 21.136 34.1901 20.096 34.6755 19.212C35.1781 18.328 35.8628 17.6607 36.7295 17.21C37.6135 16.742 38.6101 16.508 39.7195 16.508C40.5168 16.508 41.2708 16.664 41.9815 16.976C42.6921 17.2707 43.2641 17.678 43.6975 18.198V7.72H46.5835ZM40.2915 25.816C41.1235 25.816 41.8341 25.608 42.4235 25.192C43.0128 24.776 43.4288 24.1953 43.6715 23.45V21.11C43.4635 20.434 43.0475 19.8793 42.4235 19.446C41.8168 19.0127 41.1061 18.796 40.2915 18.796C39.6848 18.796 39.1215 18.952 38.6015 19.264C38.0815 19.5587 37.6655 19.9747 37.3535 20.512C37.0415 21.032 36.8855 21.6213 36.8855 22.28C36.8855 22.9387 37.0415 23.5367 37.3535 24.074C37.6655 24.6113 38.0815 25.036 38.6015 25.348C39.1215 25.66 39.6848 25.816 40.2915 25.816ZM70.4458 17.002V28H67.5338V26.414C67.1351 26.882 66.5978 27.3153 65.9218 27.714C65.2458 28.0953 64.4571 28.286 63.5558 28.286C62.4984 28.286 61.5538 28.0693 60.7218 27.636C59.8898 27.1853 59.2311 26.5267 58.7458 25.66C58.2604 24.7933 58.0178 23.7447 58.0178 22.514C58.0178 21.318 58.2691 20.2693 58.7718 19.368C59.2744 18.4493 59.9418 17.7473 60.7738 17.262C61.6231 16.7593 62.5504 16.508 63.5558 16.508C65.3411 16.508 66.6758 17.1667 67.5598 18.484L67.7678 17.002H70.4458ZM64.3618 25.894C65.1591 25.894 65.8264 25.6947 66.3638 25.296C66.9184 24.88 67.3084 24.2993 67.5338 23.554V21.162C67.3258 20.486 66.9184 19.94 66.3118 19.524C65.7224 19.108 65.0378 18.9 64.2578 18.9C63.3391 18.9 62.5591 19.2293 61.9178 19.888C61.2764 20.5293 60.9558 21.3527 60.9558 22.358C60.9558 23.0167 61.1118 23.6147 61.4238 24.152C61.7358 24.6893 62.1518 25.114 62.6718 25.426C63.1918 25.738 63.7551 25.894 64.3618 25.894ZM81.6428 16.534C82.6655 16.534 83.5148 16.846 84.1908 17.47C84.8842 18.0767 85.2395 18.8653 85.2568 19.836V28H82.3448V20.876C82.3102 20.304 82.1368 19.8533 81.8248 19.524C81.5302 19.1947 81.0795 19.0213 80.4728 19.004C79.5715 19.004 78.8262 19.394 78.2368 20.174C77.6648 20.9367 77.3788 21.916 77.3788 23.112V28H74.4668V17.002H77.0928L77.3008 18.952C77.6995 18.1893 78.2715 17.6 79.0168 17.184C79.7795 16.7507 80.6548 16.534 81.6428 16.534ZM100.996 7.72V28H98.0836V26.518C96.8702 27.6967 95.4316 28.286 93.7676 28.286C92.7449 28.286 91.8176 28.0433 90.9856 27.558C90.1709 27.0727 89.5296 26.3793 89.0616 25.478C88.5936 24.5767 88.3596 23.528 88.3596 22.332C88.3596 21.136 88.6022 20.096 89.0876 19.212C89.5902 18.328 90.2749 17.6607 91.1416 17.21C92.0256 16.742 93.0222 16.508 94.1316 16.508C94.9289 16.508 95.6829 16.664 96.3936 16.976C97.1042 17.2707 97.6762 17.678 98.1096 18.198V7.72H100.996ZM94.7036 25.816C95.5356 25.816 96.2462 25.608 96.8356 25.192C97.4249 24.776 97.8409 24.1953 98.0836 23.45V21.11C97.8756 20.434 97.4596 19.8793 96.8356 19.446C96.2289 19.0127 95.5182 18.796 94.7036 18.796C94.0969 18.796 93.5336 18.952 93.0136 19.264C92.4936 19.5587 92.0776 19.9747 91.7656 20.512C91.4536 21.032 91.2976 21.6213 91.2976 22.28C91.2976 22.9387 91.4536 23.5367 91.7656 24.074C92.0776 24.6113 92.4936 25.036 93.0136 25.348C93.5336 25.66 94.0969 25.816 94.7036 25.816ZM120.516 16.534C121.539 16.534 122.388 16.846 123.064 17.47C123.757 18.0767 124.113 18.8653 124.13 19.836V28H121.218V20.876C121.183 20.304 121.01 19.8533 120.698 19.524C120.403 19.1947 119.953 19.0213 119.346 19.004C118.445 19.004 117.699 19.394 117.11 20.174C116.538 20.954 116.252 21.9333 116.252 23.112V28H113.34V7.72H116.2V18.874C116.616 18.1633 117.188 17.6 117.916 17.184C118.661 16.7507 119.528 16.534 120.516 16.534ZM127.233 22.384C127.233 21.292 127.493 20.2953 128.013 19.394C128.55 18.4927 129.287 17.7907 130.223 17.288C131.159 16.768 132.225 16.508 133.421 16.508C134.617 16.508 135.674 16.768 136.593 17.288C137.529 17.7907 138.248 18.4927 138.751 19.394C139.253 20.278 139.505 21.2747 139.505 22.384C139.505 23.4933 139.253 24.4987 138.751 25.4C138.248 26.284 137.529 26.986 136.593 27.506C135.674 28.026 134.608 28.286 133.395 28.286C132.216 28.286 131.159 28.052 130.223 27.584C129.287 27.0987 128.55 26.414 128.013 25.53C127.493 24.6287 127.233 23.58 127.233 22.384ZM130.171 22.41C130.171 23.398 130.474 24.23 131.081 24.906C131.687 25.5647 132.441 25.894 133.343 25.894C134.279 25.894 135.041 25.5647 135.631 24.906C136.237 24.2473 136.541 23.4153 136.541 22.41C136.541 21.4047 136.237 20.5727 135.631 19.914C135.041 19.238 134.279 18.9 133.343 18.9C132.441 18.9 131.687 19.2467 131.081 19.94C130.474 20.616 130.171 21.4393 130.171 22.41ZM146.543 12.166V17.002H149.403V19.29H146.543V28H143.631V19.29H141.733V17.002H143.631V12.166H146.543ZM169.692 26.986C169.207 27.3847 168.609 27.7053 167.898 27.948C167.205 28.1733 166.503 28.286 165.792 28.286C164.579 28.286 163.504 28.052 162.568 27.584C161.649 27.116 160.939 26.4487 160.436 25.582C159.933 24.698 159.682 23.6667 159.682 22.488C159.682 21.3267 159.951 20.3127 160.488 19.446C161.025 18.562 161.736 17.886 162.62 17.418C163.521 16.95 164.483 16.716 165.506 16.716C167.239 16.716 168.669 17.184 169.796 18.12L168.34 20.018C168.011 19.758 167.621 19.5413 167.17 19.368C166.737 19.1773 166.269 19.082 165.766 19.082C164.882 19.082 164.128 19.4113 163.504 20.07C162.897 20.7113 162.594 21.5173 162.594 22.488C162.594 23.4587 162.915 24.2733 163.556 24.932C164.215 25.5733 165.047 25.894 166.052 25.894C166.919 25.894 167.647 25.6513 168.236 25.166L169.692 26.986ZM171.768 22.384C171.768 21.292 172.028 20.2953 172.548 19.394C173.085 18.4927 173.822 17.7907 174.758 17.288C175.694 16.768 176.76 16.508 177.956 16.508C179.152 16.508 180.209 16.768 181.128 17.288C182.064 17.7907 182.783 18.4927 183.286 19.394C183.788 20.278 184.04 21.2747 184.04 22.384C184.04 23.4933 183.788 24.4987 183.286 25.4C182.783 26.284 182.064 26.986 181.128 27.506C180.209 28.026 179.143 28.286 177.93 28.286C176.751 28.286 175.694 28.052 174.758 27.584C173.822 27.0987 173.085 26.414 172.548 25.53C172.028 24.6287 171.768 23.58 171.768 22.384ZM174.706 22.41C174.706 23.398 175.009 24.23 175.616 24.906C176.222 25.5647 176.976 25.894 177.878 25.894C178.814 25.894 179.576 25.5647 180.166 24.906C180.772 24.2473 181.076 23.4153 181.076 22.41C181.076 21.4047 180.772 20.5727 180.166 19.914C179.576 19.238 178.814 18.9 177.878 18.9C176.976 18.9 176.222 19.2467 175.616 19.94C175.009 20.616 174.706 21.4393 174.706 22.41ZM198.93 16.976H202.362V19.55H198.93V28H196.018V19.55H190.974V28H188.062V19.55H186.19V16.976H188.062V12.66C188.062 11.1173 188.452 9.91267 189.232 9.046C190.012 8.17933 191.13 7.746 192.586 7.746C193.019 7.746 193.487 7.81533 193.99 7.954C194.492 8.07533 194.926 8.25733 195.29 8.5L194.068 10.606C193.773 10.294 193.383 10.138 192.898 10.138C191.615 10.138 190.974 11.0047 190.974 12.738V16.976H196.018V12.66C196.018 11.1173 196.408 9.91267 197.188 9.046C197.968 8.17933 199.086 7.746 200.542 7.746C200.975 7.746 201.443 7.81533 201.946 7.954C202.448 8.07533 202.882 8.25733 203.246 8.5L202.024 10.606C201.729 10.294 201.339 10.138 200.854 10.138C199.571 10.138 198.93 11.0047 198.93 12.738V16.976ZM210.786 25.79C211.601 25.79 212.424 25.504 213.256 24.932L214.582 27.09C213.993 27.454 213.36 27.7487 212.684 27.974C212.008 28.182 211.358 28.286 210.734 28.286C209.469 28.286 208.368 28.0347 207.432 27.532C206.514 27.0293 205.803 26.336 205.3 25.452C204.815 24.568 204.572 23.554 204.572 22.41C204.572 21.3353 204.85 20.3473 205.404 19.446C205.959 18.5447 206.713 17.834 207.666 17.314C208.62 16.7767 209.66 16.508 210.786 16.508C212.277 16.508 213.516 16.95 214.504 17.834C215.492 18.7007 216.151 19.9313 216.48 21.526L208.004 24.386C208.299 24.8367 208.689 25.1833 209.174 25.426C209.66 25.6687 210.197 25.79 210.786 25.79ZM210.552 18.796C209.634 18.796 208.88 19.1167 208.29 19.758C207.718 20.3993 207.432 21.2313 207.432 22.254C207.432 22.4447 207.441 22.592 207.458 22.696L213.23 20.642C213.005 20.1047 212.676 19.6627 212.242 19.316C211.809 18.9693 211.246 18.796 210.552 18.796ZM224.65 25.79C225.464 25.79 226.288 25.504 227.12 24.932L228.446 27.09C227.856 27.454 227.224 27.7487 226.548 27.974C225.872 28.182 225.222 28.286 224.598 28.286C223.332 28.286 222.232 28.0347 221.296 27.532C220.377 27.0293 219.666 26.336 219.164 25.452C218.678 24.568 218.436 23.554 218.436 22.41C218.436 21.3353 218.713 20.3473 219.268 19.446C219.822 18.5447 220.576 17.834 221.53 17.314C222.483 16.7767 223.523 16.508 224.65 16.508C226.14 16.508 227.38 16.95 228.368 17.834C229.356 18.7007 230.014 19.9313 230.344 21.526L221.868 24.386C222.162 24.8367 222.552 25.1833 223.038 25.426C223.523 25.6687 224.06 25.79 224.65 25.79ZM224.416 18.796C223.497 18.796 222.743 19.1167 222.154 19.758C221.582 20.3993 221.296 21.2313 221.296 22.254C221.296 22.4447 221.304 22.592 221.322 22.696L227.094 20.642C226.868 20.1047 226.539 19.6627 226.106 19.316C225.672 18.9693 225.109 18.796 224.416 18.796ZM242.499 19.55H240.627V16.976H242.499V12.66C242.499 11.1173 242.889 9.91267 243.669 9.046C244.449 8.17933 245.567 7.746 247.023 7.746C247.456 7.746 247.924 7.81533 248.427 7.954C248.93 8.07533 249.363 8.25733 249.727 8.5L248.505 10.606C248.21 10.294 247.82 10.138 247.335 10.138C246.052 10.138 245.411 11.0047 245.411 12.738V16.976H248.843V19.55H245.411V28H242.499V19.55ZM254.832 19.55C255.127 18.9607 255.543 18.432 256.08 17.964C256.617 17.496 257.163 17.1407 257.718 16.898C258.29 16.638 258.767 16.508 259.148 16.508L259.018 19.42C258.221 19.3507 257.51 19.498 256.886 19.862C256.262 20.2087 255.777 20.694 255.43 21.318C255.083 21.9247 254.91 22.5747 254.91 23.268V28H251.998V17.002H254.624L254.832 19.55ZM260.724 22.384C260.724 21.292 260.984 20.2953 261.504 19.394C262.042 18.4927 262.778 17.7907 263.714 17.288C264.65 16.768 265.716 16.508 266.912 16.508C268.108 16.508 269.166 16.768 270.084 17.288C271.02 17.7907 271.74 18.4927 272.242 19.394C272.745 20.278 272.996 21.2747 272.996 22.384C272.996 23.4933 272.745 24.4987 272.242 25.4C271.74 26.284 271.02 26.986 270.084 27.506C269.166 28.026 268.1 28.286 266.886 28.286C265.708 28.286 264.65 28.052 263.714 27.584C262.778 27.0987 262.042 26.414 261.504 25.53C260.984 24.6287 260.724 23.58 260.724 22.384ZM263.662 22.41C263.662 23.398 263.966 24.23 264.572 24.906C265.179 25.5647 265.933 25.894 266.834 25.894C267.77 25.894 268.533 25.5647 269.122 24.906C269.729 24.2473 270.032 23.4153 270.032 22.41C270.032 21.4047 269.729 20.5727 269.122 19.914C268.533 19.238 267.77 18.9 266.834 18.9C265.933 18.9 265.179 19.2467 264.572 19.94C263.966 20.616 263.662 21.4393 263.662 22.41ZM290.33 16.508C291.405 16.508 292.254 16.8113 292.878 17.418C293.52 18.0247 293.858 18.822 293.892 19.81V28H291.006V20.928C290.972 20.3387 290.842 19.888 290.616 19.576C290.391 19.2467 290.018 19.0647 289.498 19.03C288.597 19.03 287.869 19.4373 287.314 20.252C286.76 21.0493 286.474 21.9853 286.456 23.06V28H283.518V20.928C283.484 20.356 283.345 19.9053 283.102 19.576C282.877 19.2467 282.496 19.0647 281.958 19.03C281.369 19.03 280.849 19.2207 280.398 19.602C279.948 19.9833 279.592 20.486 279.332 21.11C279.09 21.734 278.968 22.384 278.968 23.06V28H276.056V17.002H278.682L278.916 18.926C279.332 18.146 279.896 17.548 280.606 17.132C281.317 16.716 282.132 16.508 283.05 16.508C283.934 16.508 284.671 16.7073 285.26 17.106C285.867 17.4873 286.266 18.042 286.456 18.77C286.907 18.0593 287.479 17.5047 288.172 17.106C288.866 16.7073 289.585 16.508 290.33 16.508ZM313.448 16.508C314.471 16.508 315.398 16.7507 316.23 17.236C317.062 17.7213 317.712 18.4147 318.18 19.316C318.648 20.2173 318.882 21.266 318.882 22.462C318.882 23.6407 318.622 24.672 318.102 25.556C317.6 26.44 316.889 27.116 315.97 27.584C315.069 28.052 314.046 28.286 312.902 28.286C312.174 28.286 311.472 28.1387 310.796 27.844C310.12 27.5493 309.566 27.1507 309.132 26.648V33.278H306.22V16.794H308.742L309.002 18.432C309.574 17.8427 310.233 17.3747 310.978 17.028C311.741 16.6813 312.564 16.508 313.448 16.508ZM312.33 25.972C312.972 25.972 313.561 25.8247 314.098 25.53C314.653 25.218 315.095 24.802 315.424 24.282C315.754 23.762 315.918 23.1727 315.918 22.514C315.918 21.4913 315.589 20.6507 314.93 19.992C314.289 19.316 313.492 18.978 312.538 18.978C311.689 18.978 310.97 19.186 310.38 19.602C309.808 20.018 309.392 20.5987 309.132 21.344V23.554C309.306 24.2647 309.678 24.8453 310.25 25.296C310.84 25.7467 311.533 25.972 312.33 25.972ZM324.796 19.55C325.091 18.9607 325.507 18.432 326.044 17.964C326.582 17.496 327.128 17.1407 327.682 16.898C328.254 16.638 328.731 16.508 329.112 16.508L328.982 19.42C328.185 19.3507 327.474 19.498 326.85 19.862C326.226 20.2087 325.741 20.694 325.394 21.318C325.048 21.9247 324.874 22.5747 324.874 23.268V28H321.962V17.002H324.588L324.796 19.55ZM336.903 25.79C337.717 25.79 338.541 25.504 339.373 24.932L340.699 27.09C340.109 27.454 339.477 27.7487 338.801 27.974C338.125 28.182 337.475 28.286 336.851 28.286C335.585 28.286 334.485 28.0347 333.549 27.532C332.63 27.0293 331.919 26.336 331.417 25.452C330.931 24.568 330.689 23.554 330.689 22.41C330.689 21.3353 330.966 20.3473 331.521 19.446C332.075 18.5447 332.829 17.834 333.783 17.314C334.736 16.7767 335.776 16.508 336.903 16.508C338.393 16.508 339.633 16.95 340.621 17.834C341.609 18.7007 342.267 19.9313 342.597 21.526L334.121 24.386C334.415 24.8367 334.805 25.1833 335.291 25.426C335.776 25.6687 336.313 25.79 336.903 25.79ZM336.669 18.796C335.75 18.796 334.996 19.1167 334.407 19.758C333.835 20.3993 333.549 21.2313 333.549 22.254C333.549 22.4447 333.557 22.592 333.575 22.696L339.347 20.642C339.121 20.1047 338.792 19.6627 338.359 19.316C337.925 18.9693 337.362 18.796 336.669 18.796ZM359.736 16.508C360.811 16.508 361.66 16.8113 362.284 17.418C362.925 18.0247 363.263 18.822 363.298 19.81V28H360.412V20.928C360.377 20.3387 360.247 19.888 360.022 19.576C359.797 19.2467 359.424 19.0647 358.904 19.03C358.003 19.03 357.275 19.4373 356.72 20.252C356.165 21.0493 355.879 21.9853 355.862 23.06V28H352.924V20.928C352.889 20.356 352.751 19.9053 352.508 19.576C352.283 19.2467 351.901 19.0647 351.364 19.03C350.775 19.03 350.255 19.2207 349.804 19.602C349.353 19.9833 348.998 20.486 348.738 21.11C348.495 21.734 348.374 22.384 348.374 23.06V28H345.462V17.002H348.088L348.322 18.926C348.738 18.146 349.301 17.548 350.012 17.132C350.723 16.716 351.537 16.508 352.456 16.508C353.34 16.508 354.077 16.7073 354.666 17.106C355.273 17.4873 355.671 18.042 355.862 18.77C356.313 18.0593 356.885 17.5047 357.578 17.106C358.271 16.7073 358.991 16.508 359.736 16.508ZM370.21 17.002V28H367.298V17.002H370.21ZM367.168 13.076C367.168 12.6427 367.341 12.2787 367.688 11.984C368.035 11.672 368.425 11.516 368.858 11.516C369.274 11.516 369.647 11.672 369.976 11.984C370.323 12.2787 370.496 12.6427 370.496 13.076C370.496 13.5093 370.323 13.8733 369.976 14.168C369.647 14.4627 369.274 14.61 368.858 14.61C368.425 14.61 368.035 14.4627 367.688 14.168C367.341 13.8733 367.168 13.5093 367.168 13.076ZM384.786 17.002V28H382.16L381.978 26.024C381.597 26.7693 381.033 27.3673 380.288 27.818C379.543 28.2513 378.693 28.468 377.74 28.468C376.735 28.468 375.894 28.1647 375.218 27.558C374.559 26.934 374.221 26.1367 374.204 25.166V17.002H377.116V24.126C377.168 25.3393 377.766 25.9547 378.91 25.972C379.759 25.972 380.461 25.582 381.016 24.802C381.588 24.022 381.874 23.0427 381.874 21.864V17.002H384.786ZM403.078 16.508C404.152 16.508 405.002 16.8113 405.626 17.418C406.267 18.0247 406.605 18.822 406.64 19.81V28H403.754V20.928C403.719 20.3387 403.589 19.888 403.364 19.576C403.138 19.2467 402.766 19.0647 402.246 19.03C401.344 19.03 400.616 19.4373 400.062 20.252C399.507 21.0493 399.221 21.9853 399.204 23.06V28H396.266V20.928C396.231 20.356 396.092 19.9053 395.85 19.576C395.624 19.2467 395.243 19.0647 394.706 19.03C394.116 19.03 393.596 19.2207 393.146 19.602C392.695 19.9833 392.34 20.486 392.08 21.11C391.837 21.734 391.716 22.384 391.716 23.06V28H388.804V17.002H391.43L391.664 18.926C392.08 18.146 392.643 17.548 393.354 17.132C394.064 16.716 394.879 16.508 395.798 16.508C396.682 16.508 397.418 16.7073 398.008 17.106C398.614 17.4873 399.013 18.042 399.204 18.77C399.654 18.0593 400.226 17.5047 400.92 17.106C401.613 16.7073 402.332 16.508 403.078 16.508ZM421.88 7.72V28H418.968V7.72H421.88ZM424.964 22.384C424.964 21.292 425.224 20.2953 425.744 19.394C426.281 18.4927 427.018 17.7907 427.954 17.288C428.89 16.768 429.956 16.508 431.152 16.508C432.348 16.508 433.405 16.768 434.324 17.288C435.26 17.7907 435.979 18.4927 436.482 19.394C436.985 20.278 437.236 21.2747 437.236 22.384C437.236 23.4933 436.985 24.4987 436.482 25.4C435.979 26.284 435.26 26.986 434.324 27.506C433.405 28.026 432.339 28.286 431.126 28.286C429.947 28.286 428.89 28.052 427.954 27.584C427.018 27.0987 426.281 26.414 425.744 25.53C425.224 24.6287 424.964 23.58 424.964 22.384ZM427.902 22.41C427.902 23.398 428.205 24.23 428.812 24.906C429.419 25.5647 430.173 25.894 431.074 25.894C432.01 25.894 432.773 25.5647 433.362 24.906C433.969 24.2473 434.272 23.4153 434.272 22.41C434.272 21.4047 433.969 20.5727 433.362 19.914C432.773 19.238 432.01 18.9 431.074 18.9C430.173 18.9 429.419 19.2467 428.812 19.94C428.205 20.616 427.902 21.4393 427.902 22.41ZM449.396 26.986C448.911 27.3847 448.313 27.7053 447.602 27.948C446.909 28.1733 446.207 28.286 445.496 28.286C444.283 28.286 443.208 28.052 442.272 27.584C441.353 27.116 440.643 26.4487 440.14 25.582C439.637 24.698 439.386 23.6667 439.386 22.488C439.386 21.3267 439.655 20.3127 440.192 19.446C440.729 18.562 441.44 17.886 442.324 17.418C443.225 16.95 444.187 16.716 445.21 16.716C446.943 16.716 448.373 17.184 449.5 18.12L448.044 20.018C447.715 19.758 447.325 19.5413 446.874 19.368C446.441 19.1773 445.973 19.082 445.47 19.082C444.586 19.082 443.832 19.4113 443.208 20.07C442.601 20.7113 442.298 21.5173 442.298 22.488C442.298 23.4587 442.619 24.2733 443.26 24.932C443.919 25.5733 444.751 25.894 445.756 25.894C446.623 25.894 447.351 25.6513 447.94 25.166L449.396 26.986ZM463.9 17.002V28H460.988V26.414C460.589 26.882 460.052 27.3153 459.376 27.714C458.7 28.0953 457.911 28.286 457.01 28.286C455.952 28.286 455.008 28.0693 454.176 27.636C453.344 27.1853 452.685 26.5267 452.2 25.66C451.714 24.7933 451.472 23.7447 451.472 22.514C451.472 21.318 451.723 20.2693 452.226 19.368C452.728 18.4493 453.396 17.7473 454.228 17.262C455.077 16.7593 456.004 16.508 457.01 16.508C458.795 16.508 460.13 17.1667 461.014 18.484L461.222 17.002H463.9ZM457.816 25.894C458.613 25.894 459.28 25.6947 459.818 25.296C460.372 24.88 460.762 24.2993 460.988 23.554V21.162C460.78 20.486 460.372 19.94 459.766 19.524C459.176 19.108 458.492 18.9 457.712 18.9C456.793 18.9 456.013 19.2293 455.372 19.888C454.73 20.5293 454.41 21.3527 454.41 22.358C454.41 23.0167 454.566 23.6147 454.878 24.152C455.19 24.6893 455.606 25.114 456.126 25.426C456.646 25.738 457.209 25.894 457.816 25.894ZM470.833 7.72V28H467.921V7.72H470.833ZM485.989 19.55C486.284 18.9607 486.7 18.432 487.237 17.964C487.775 17.496 488.321 17.1407 488.875 16.898C489.447 16.638 489.924 16.508 490.305 16.508L490.175 19.42C489.378 19.3507 488.667 19.498 488.043 19.862C487.419 20.2087 486.934 20.694 486.587 21.318C486.241 21.9247 486.067 22.5747 486.067 23.268V28H483.155V17.002H485.781L485.989 19.55ZM491.881 22.384C491.881 21.292 492.141 20.2953 492.661 19.394C493.199 18.4927 493.935 17.7907 494.871 17.288C495.807 16.768 496.873 16.508 498.069 16.508C499.265 16.508 500.323 16.768 501.241 17.288C502.177 17.7907 502.897 18.4927 503.399 19.394C503.902 20.278 504.153 21.2747 504.153 22.384C504.153 23.4933 503.902 24.4987 503.399 25.4C502.897 26.284 502.177 26.986 501.241 27.506C500.323 28.026 499.257 28.286 498.043 28.286C496.865 28.286 495.807 28.052 494.871 27.584C493.935 27.0987 493.199 26.414 492.661 25.53C492.141 24.6287 491.881 23.58 491.881 22.384ZM494.819 22.41C494.819 23.398 495.123 24.23 495.729 24.906C496.336 25.5647 497.09 25.894 497.991 25.894C498.927 25.894 499.69 25.5647 500.279 24.906C500.886 24.2473 501.189 23.4153 501.189 22.41C501.189 21.4047 500.886 20.5727 500.279 19.914C499.69 19.238 498.927 18.9 497.991 18.9C497.09 18.9 496.336 19.2467 495.729 19.94C495.123 20.616 494.819 21.4393 494.819 22.41ZM518.731 17.002V28H515.819V26.414C515.421 26.882 514.883 27.3153 514.207 27.714C513.531 28.0953 512.743 28.286 511.841 28.286C510.784 28.286 509.839 28.0693 509.007 27.636C508.175 27.1853 507.517 26.5267 507.031 25.66C506.546 24.7933 506.303 23.7447 506.303 22.514C506.303 21.318 506.555 20.2693 507.057 19.368C507.56 18.4493 508.227 17.7473 509.059 17.262C509.909 16.7593 510.836 16.508 511.841 16.508C513.627 16.508 514.961 17.1667 515.845 18.484L516.053 17.002H518.731ZM512.647 25.894C513.445 25.894 514.112 25.6947 514.649 25.296C515.204 24.88 515.594 24.2993 515.819 23.554V21.162C515.611 20.486 515.204 19.94 514.597 19.524C514.008 19.108 513.323 18.9 512.543 18.9C511.625 18.9 510.845 19.2293 510.203 19.888C509.562 20.5293 509.241 21.3527 509.241 22.358C509.241 23.0167 509.397 23.6147 509.709 24.152C510.021 24.6893 510.437 25.114 510.957 25.426C511.477 25.738 512.041 25.894 512.647 25.894ZM526.054 28.234C525.205 28.234 524.399 28.0867 523.636 27.792C522.891 27.48 522.276 27.0467 521.79 26.492L523.012 24.854C523.931 25.7553 524.867 26.206 525.82 26.206C526.34 26.206 526.765 26.1107 527.094 25.92C527.441 25.712 527.614 25.4087 527.614 25.01C527.614 24.594 527.441 24.282 527.094 24.074C526.748 23.866 526.358 23.7013 525.924 23.58C525.508 23.4413 525.24 23.3547 525.118 23.32C524.165 23.0253 523.454 22.6007 522.986 22.046C522.518 21.474 522.284 20.8067 522.284 20.044C522.284 19.4373 522.432 18.874 522.726 18.354C523.038 17.8167 523.498 17.3833 524.104 17.054C524.728 16.7247 525.482 16.56 526.366 16.56C527.198 16.56 527.918 16.6553 528.524 16.846C529.148 17.0367 529.729 17.34 530.266 17.756L529.148 19.498C528.836 19.2033 528.455 18.9693 528.004 18.796C527.571 18.6227 527.172 18.536 526.808 18.536C526.358 18.536 525.985 18.64 525.69 18.848C525.396 19.056 525.248 19.3247 525.248 19.654C525.231 20.0527 525.378 20.356 525.69 20.564C526.002 20.7547 526.505 20.9627 527.198 21.188C527.493 21.2747 527.684 21.3353 527.77 21.37C528.637 21.6473 529.313 22.0373 529.798 22.54C530.284 23.0253 530.526 23.6667 530.526 24.464C530.526 25.5387 530.136 26.44 529.356 27.168C528.594 27.8787 527.493 28.234 526.054 28.234ZM537.725 12.166V17.002H540.585V19.29H537.725V28H534.813V19.29H532.915V17.002H534.813V12.166H537.725ZM548.75 25.79C549.564 25.79 550.388 25.504 551.22 24.932L552.546 27.09C551.956 27.454 551.324 27.7487 550.648 27.974C549.972 28.182 549.322 28.286 548.698 28.286C547.432 28.286 546.332 28.0347 545.396 27.532C544.477 27.0293 543.766 26.336 543.264 25.452C542.778 24.568 542.536 23.554 542.536 22.41C542.536 21.3353 542.813 20.3473 543.368 19.446C543.922 18.5447 544.676 17.834 545.63 17.314C546.583 16.7767 547.623 16.508 548.75 16.508C550.24 16.508 551.48 16.95 552.468 17.834C553.456 18.7007 554.114 19.9313 554.444 21.526L545.968 24.386C546.262 24.8367 546.652 25.1833 547.138 25.426C547.623 25.6687 548.16 25.79 548.75 25.79ZM548.516 18.796C547.597 18.796 546.843 19.1167 546.254 19.758C545.682 20.3993 545.396 21.2313 545.396 22.254C545.396 22.4447 545.404 22.592 545.422 22.696L551.194 20.642C550.968 20.1047 550.639 19.6627 550.206 19.316C549.772 18.9693 549.209 18.796 548.516 18.796ZM560.143 19.55C560.438 18.9607 560.854 18.432 561.391 17.964C561.928 17.496 562.474 17.1407 563.029 16.898C563.601 16.638 564.078 16.508 564.459 16.508L564.329 19.42C563.532 19.3507 562.821 19.498 562.197 19.862C561.573 20.2087 561.088 20.694 560.741 21.318C560.394 21.9247 560.221 22.5747 560.221 23.268V28H557.309V17.002H559.935L560.143 19.55ZM570.742 28.234C569.893 28.234 569.087 28.0867 568.324 27.792C567.579 27.48 566.963 27.0467 566.478 26.492L567.7 24.854C568.619 25.7553 569.555 26.206 570.508 26.206C571.028 26.206 571.453 26.1107 571.782 25.92C572.129 25.712 572.302 25.4087 572.302 25.01C572.302 24.594 572.129 24.282 571.782 24.074C571.435 23.866 571.045 23.7013 570.612 23.58C570.196 23.4413 569.927 23.3547 569.806 23.32C568.853 23.0253 568.142 22.6007 567.674 22.046C567.206 21.474 566.972 20.8067 566.972 20.044C566.972 19.4373 567.119 18.874 567.414 18.354C567.726 17.8167 568.185 17.3833 568.792 17.054C569.416 16.7247 570.17 16.56 571.054 16.56C571.886 16.56 572.605 16.6553 573.212 16.846C573.836 17.0367 574.417 17.34 574.954 17.756L573.836 19.498C573.524 19.2033 573.143 18.9693 572.692 18.796C572.259 18.6227 571.86 18.536 571.496 18.536C571.045 18.536 570.673 18.64 570.378 18.848C570.083 19.056 569.936 19.3247 569.936 19.654C569.919 20.0527 570.066 20.356 570.378 20.564C570.69 20.7547 571.193 20.9627 571.886 21.188C572.181 21.2747 572.371 21.3353 572.458 21.37C573.325 21.6473 574.001 22.0373 574.486 22.54C574.971 23.0253 575.214 23.6667 575.214 24.464C575.214 25.5387 574.824 26.44 574.044 27.168C573.281 27.8787 572.181 28.234 570.742 28.234ZM2.964 61.55H1.092V58.976H2.964V54.66C2.964 53.1173 3.354 51.9127 4.134 51.046C4.914 50.1793 6.032 49.746 7.488 49.746C7.92133 49.746 8.38933 49.8153 8.892 49.954C9.39467 50.0753 9.828 50.2573 10.192 50.5L8.97 52.606C8.67533 52.294 8.28533 52.138 7.8 52.138C6.51733 52.138 5.876 53.0047 5.876 54.738V58.976H9.308V61.55H5.876V70H2.964V61.55ZM15.2969 61.55C15.5916 60.9607 16.0076 60.432 16.5449 59.964C17.0823 59.496 17.6283 59.1407 18.1829 58.898C18.7549 58.638 19.2316 58.508 19.6129 58.508L19.4829 61.42C18.6856 61.3507 17.9749 61.498 17.3509 61.862C16.7269 62.2087 16.2416 62.694 15.8949 63.318C15.5483 63.9247 15.3749 64.5747 15.3749 65.268V70H12.4629V59.002H15.0889L15.2969 61.55ZM27.4154 67.79C28.23 67.79 29.0534 67.504 29.8854 66.932L31.2114 69.09C30.622 69.454 29.9894 69.7487 29.3134 69.974C28.6374 70.182 27.9874 70.286 27.3634 70.286C26.098 70.286 24.9974 70.0347 24.0614 69.532C23.1427 69.0293 22.432 68.336 21.9294 67.452C21.444 66.568 21.2014 65.554 21.2014 64.41C21.2014 63.3353 21.4787 62.3473 22.0334 61.446C22.588 60.5447 23.342 59.834 24.2954 59.314C25.2487 58.7767 26.2887 58.508 27.4154 58.508C28.906 58.508 30.1454 58.95 31.1334 59.834C32.1214 60.7007 32.78 61.9313 33.1094 63.526L24.6334 66.386C24.928 66.8367 25.318 67.1833 25.8034 67.426C26.2887 67.6687 26.826 67.79 27.4154 67.79ZM27.1814 60.796C26.2627 60.796 25.5087 61.1167 24.9194 61.758C24.3474 62.3993 24.0614 63.2313 24.0614 64.254C24.0614 64.4447 24.07 64.592 24.0874 64.696L29.8594 62.642C29.634 62.1047 29.3047 61.6627 28.8714 61.316C28.438 60.9693 27.8747 60.796 27.1814 60.796ZM39.2767 70.234C38.4273 70.234 37.6213 70.0867 36.8587 69.792C36.1133 69.48 35.498 69.0467 35.0127 68.492L36.2347 66.854C37.1533 67.7553 38.0893 68.206 39.0427 68.206C39.5627 68.206 39.9873 68.1107 40.3167 67.92C40.6633 67.712 40.8367 67.4087 40.8367 67.01C40.8367 66.594 40.6633 66.282 40.3167 66.074C39.97 65.866 39.58 65.7013 39.1467 65.58C38.7307 65.4413 38.462 65.3547 38.3407 65.32C37.3873 65.0253 36.6767 64.6007 36.2087 64.046C35.7407 63.474 35.5067 62.8067 35.5067 62.044C35.5067 61.4373 35.654 60.874 35.9487 60.354C36.2607 59.8167 36.72 59.3833 37.3267 59.054C37.9507 58.7247 38.7047 58.56 39.5887 58.56C40.4207 58.56 41.14 58.6553 41.7467 58.846C42.3707 59.0367 42.9513 59.34 43.4887 59.756L42.3707 61.498C42.0587 61.2033 41.6773 60.9693 41.2267 60.796C40.7933 60.6227 40.3947 60.536 40.0307 60.536C39.58 60.536 39.2073 60.64 38.9127 60.848C38.618 61.056 38.4707 61.3247 38.4707 61.654C38.4533 62.0527 38.6007 62.356 38.9127 62.564C39.2247 62.7547 39.7273 62.9627 40.4207 63.188C40.7153 63.2747 40.906 63.3353 40.9927 63.37C41.8593 63.6473 42.5353 64.0373 43.0207 64.54C43.506 65.0253 43.7487 65.6667 43.7487 66.464C43.7487 67.5387 43.3587 68.44 42.5787 69.168C41.816 69.8787 40.7153 70.234 39.2767 70.234ZM54.1448 58.534C55.1675 58.534 56.0168 58.846 56.6928 59.47C57.3861 60.0767 57.7415 60.8653 57.7588 61.836V70H54.8468V62.876C54.8121 62.304 54.6388 61.8533 54.3268 61.524C54.0321 61.1947 53.5815 61.0213 52.9748 61.004C52.0735 61.004 51.3281 61.394 50.7388 62.174C50.1668 62.954 49.8808 63.9333 49.8808 65.112V70H46.9688V49.72H49.8288V60.874C50.2448 60.1633 50.8168 59.6 51.5448 59.184C52.2901 58.7507 53.1568 58.534 54.1448 58.534ZM81.8257 49.72V70H78.9137V68.518C77.7003 69.6967 76.2617 70.286 74.5977 70.286C73.575 70.286 72.6477 70.0433 71.8157 69.558C71.001 69.0727 70.3597 68.3793 69.8917 67.478C69.4237 66.5767 69.1897 65.528 69.1897 64.332C69.1897 63.136 69.4323 62.096 69.9177 61.212C70.4203 60.328 71.105 59.6607 71.9717 59.21C72.8557 58.742 73.8523 58.508 74.9617 58.508C75.759 58.508 76.513 58.664 77.2237 58.976C77.9343 59.2707 78.5063 59.678 78.9397 60.198V49.72H81.8257ZM75.5337 67.816C76.3657 67.816 77.0763 67.608 77.6657 67.192C78.255 66.776 78.671 66.1953 78.9137 65.45V63.11C78.7057 62.434 78.2897 61.8793 77.6657 61.446C77.059 61.0127 76.3483 60.796 75.5337 60.796C74.927 60.796 74.3637 60.952 73.8437 61.264C73.3237 61.5587 72.9077 61.9747 72.5957 62.512C72.2837 63.032 72.1277 63.6213 72.1277 64.28C72.1277 64.9387 72.2837 65.5367 72.5957 66.074C72.9077 66.6113 73.3237 67.036 73.8437 67.348C74.3637 67.66 74.927 67.816 75.5337 67.816ZM97.3598 59.002V70H94.4478V68.414C94.0492 68.882 93.5118 69.3153 92.8358 69.714C92.1598 70.0953 91.3712 70.286 90.4698 70.286C89.4125 70.286 88.4678 70.0693 87.6358 69.636C86.8038 69.1853 86.1452 68.5267 85.6598 67.66C85.1745 66.7933 84.9318 65.7447 84.9318 64.514C84.9318 63.318 85.1832 62.2693 85.6858 61.368C86.1885 60.4493 86.8558 59.7473 87.6878 59.262C88.5372 58.7593 89.4645 58.508 90.4698 58.508C92.2552 58.508 93.5898 59.1667 94.4738 60.484L94.6818 59.002H97.3598ZM91.2758 67.894C92.0732 67.894 92.7405 67.6947 93.2778 67.296C93.8325 66.88 94.2225 66.2993 94.4478 65.554V63.162C94.2398 62.486 93.8325 61.94 93.2258 61.524C92.6365 61.108 91.9518 60.9 91.1718 60.9C90.2532 60.9 89.4732 61.2293 88.8318 61.888C88.1905 62.5293 87.8698 63.3527 87.8698 64.358C87.8698 65.0167 88.0258 65.6147 88.3378 66.152C88.6498 66.6893 89.0658 67.114 89.5858 67.426C90.1058 67.738 90.6692 67.894 91.2758 67.894ZM104.293 59.002V70H101.381V59.002H104.293ZM101.251 55.076C101.251 54.6427 101.424 54.2787 101.771 53.984C102.118 53.672 102.508 53.516 102.941 53.516C103.357 53.516 103.73 53.672 104.059 53.984C104.406 54.2787 104.579 54.6427 104.579 55.076C104.579 55.5093 104.406 55.8733 104.059 56.168C103.73 56.4627 103.357 56.61 102.941 56.61C102.508 56.61 102.118 56.4627 101.771 56.168C101.424 55.8733 101.251 55.5093 101.251 55.076ZM111.199 49.72V70H108.287V49.72H111.199ZM126.061 59.002L118.963 75.278H116.103L118.677 69.532L113.581 59.002H116.857L120.133 66.282L123.409 59.002H126.061ZM140.077 70.234C139.228 70.234 138.422 70.0867 137.659 69.792C136.914 69.48 136.299 69.0467 135.813 68.492L137.035 66.854C137.954 67.7553 138.89 68.206 139.843 68.206C140.363 68.206 140.788 68.1107 141.117 67.92C141.464 67.712 141.637 67.4087 141.637 67.01C141.637 66.594 141.464 66.282 141.117 66.074C140.771 65.866 140.381 65.7013 139.947 65.58C139.531 65.4413 139.263 65.3547 139.141 65.32C138.188 65.0253 137.477 64.6007 137.009 64.046C136.541 63.474 136.307 62.8067 136.307 62.044C136.307 61.4373 136.455 60.874 136.749 60.354C137.061 59.8167 137.521 59.3833 138.127 59.054C138.751 58.7247 139.505 58.56 140.389 58.56C141.221 58.56 141.941 58.6553 142.547 58.846C143.171 59.0367 143.752 59.34 144.289 59.756L143.171 61.498C142.859 61.2033 142.478 60.9693 142.027 60.796C141.594 60.6227 141.195 60.536 140.831 60.536C140.381 60.536 140.008 60.64 139.713 60.848C139.419 61.056 139.271 61.3247 139.271 61.654C139.254 62.0527 139.401 62.356 139.713 62.564C140.025 62.7547 140.528 62.9627 141.221 63.188C141.516 63.2747 141.707 63.3353 141.793 63.37C142.66 63.6473 143.336 64.0373 143.821 64.54C144.307 65.0253 144.549 65.6667 144.549 66.464C144.549 67.5387 144.159 68.44 143.379 69.168C142.617 69.8787 141.516 70.234 140.077 70.234ZM153.074 67.79C153.888 67.79 154.712 67.504 155.544 66.932L156.87 69.09C156.28 69.454 155.648 69.7487 154.972 69.974C154.296 70.182 153.646 70.286 153.022 70.286C151.756 70.286 150.656 70.0347 149.72 69.532C148.801 69.0293 148.09 68.336 147.588 67.452C147.102 66.568 146.86 65.554 146.86 64.41C146.86 63.3353 147.137 62.3473 147.692 61.446C148.246 60.5447 149 59.834 149.954 59.314C150.907 58.7767 151.947 58.508 153.074 58.508C154.564 58.508 155.804 58.95 156.792 59.834C157.78 60.7007 158.438 61.9313 158.768 63.526L150.292 66.386C150.586 66.8367 150.976 67.1833 151.462 67.426C151.947 67.6687 152.484 67.79 153.074 67.79ZM152.84 60.796C151.921 60.796 151.167 61.1167 150.578 61.758C150.006 62.3993 149.72 63.2313 149.72 64.254C149.72 64.4447 149.728 64.592 149.746 64.696L155.518 62.642C155.292 62.1047 154.963 61.6627 154.53 61.316C154.096 60.9693 153.533 60.796 152.84 60.796ZM164.545 49.72V70H161.633V49.72H164.545ZM173.843 67.79C174.658 67.79 175.481 67.504 176.313 66.932L177.639 69.09C177.05 69.454 176.417 69.7487 175.741 69.974C175.065 70.182 174.415 70.286 173.791 70.286C172.526 70.286 171.425 70.0347 170.489 69.532C169.57 69.0293 168.86 68.336 168.357 67.452C167.872 66.568 167.629 65.554 167.629 64.41C167.629 63.3353 167.906 62.3473 168.461 61.446C169.016 60.5447 169.77 59.834 170.723 59.314C171.676 58.7767 172.716 58.508 173.843 58.508C175.334 58.508 176.573 58.95 177.561 59.834C178.549 60.7007 179.208 61.9313 179.537 63.526L171.061 66.386C171.356 66.8367 171.746 67.1833 172.231 67.426C172.716 67.6687 173.254 67.79 173.843 67.79ZM173.609 60.796C172.69 60.796 171.936 61.1167 171.347 61.758C170.775 62.3993 170.489 63.2313 170.489 64.254C170.489 64.4447 170.498 64.592 170.515 64.696L176.287 62.642C176.062 62.1047 175.732 61.6627 175.299 61.316C174.866 60.9693 174.302 60.796 173.609 60.796ZM191.502 68.986C191.017 69.3847 190.419 69.7053 189.708 69.948C189.015 70.1733 188.313 70.286 187.602 70.286C186.389 70.286 185.314 70.052 184.378 69.584C183.46 69.116 182.749 68.4487 182.246 67.582C181.744 66.698 181.492 65.6667 181.492 64.488C181.492 63.3267 181.761 62.3127 182.298 61.446C182.836 60.562 183.546 59.886 184.43 59.418C185.332 58.95 186.294 58.716 187.316 58.716C189.05 58.716 190.48 59.184 191.606 60.12L190.15 62.018C189.821 61.758 189.431 61.5413 188.98 61.368C188.547 61.1773 188.079 61.082 187.576 61.082C186.692 61.082 185.938 61.4113 185.314 62.07C184.708 62.7113 184.404 63.5173 184.404 64.488C184.404 65.4587 184.725 66.2733 185.366 66.932C186.025 67.5733 186.857 67.894 187.862 67.894C188.729 67.894 189.457 67.6513 190.046 67.166L191.502 68.986ZM198.466 54.166V59.002H201.326V61.29H198.466V70H195.554V61.29H193.656V59.002H195.554V54.166H198.466ZM207.1 59.002V70H204.188V59.002H207.1ZM204.058 55.076C204.058 54.6427 204.231 54.2787 204.578 53.984C204.924 53.672 205.314 53.516 205.748 53.516C206.164 53.516 206.536 53.672 206.866 53.984C207.212 54.2787 207.386 54.6427 207.386 55.076C207.386 55.5093 207.212 55.8733 206.866 56.168C206.536 56.4627 206.164 56.61 205.748 56.61C205.314 56.61 204.924 56.4627 204.578 56.168C204.231 55.8733 204.058 55.5093 204.058 55.076ZM210.184 64.384C210.184 63.292 210.444 62.2953 210.964 61.394C211.501 60.4927 212.238 59.7907 213.174 59.288C214.11 58.768 215.176 58.508 216.372 58.508C217.568 58.508 218.625 58.768 219.544 59.288C220.48 59.7907 221.199 60.4927 221.702 61.394C222.204 62.278 222.456 63.2747 222.456 64.384C222.456 65.4933 222.204 66.4987 221.702 67.4C221.199 68.284 220.48 68.986 219.544 69.506C218.625 70.026 217.559 70.286 216.346 70.286C215.167 70.286 214.11 70.052 213.174 69.584C212.238 69.0987 211.501 68.414 210.964 67.53C210.444 66.6287 210.184 65.58 210.184 64.384ZM213.122 64.41C213.122 65.398 213.425 66.23 214.032 66.906C214.638 67.5647 215.392 67.894 216.294 67.894C217.23 67.894 217.992 67.5647 218.582 66.906C219.188 66.2473 219.492 65.4153 219.492 64.41C219.492 63.4047 219.188 62.5727 218.582 61.914C217.992 61.238 217.23 60.9 216.294 60.9C215.392 60.9 214.638 61.2467 214.032 61.94C213.425 62.616 213.122 63.4393 213.122 64.41ZM232.692 58.534C233.714 58.534 234.564 58.846 235.24 59.47C235.933 60.0767 236.288 60.8653 236.306 61.836V70H233.394V62.876C233.359 62.304 233.186 61.8533 232.874 61.524C232.579 61.1947 232.128 61.0213 231.522 61.004C230.62 61.004 229.875 61.394 229.286 62.174C228.714 62.9367 228.428 63.916 228.428 65.112V70H225.516V59.002H228.142L228.35 60.952C228.748 60.1893 229.32 59.6 230.066 59.184C230.828 58.7507 231.704 58.534 232.692 58.534ZM247.737 64.384C247.737 63.292 247.997 62.2953 248.517 61.394C249.054 60.4927 249.791 59.7907 250.727 59.288C251.663 58.768 252.729 58.508 253.925 58.508C255.121 58.508 256.178 58.768 257.097 59.288C258.033 59.7907 258.752 60.4927 259.255 61.394C259.757 62.278 260.009 63.2747 260.009 64.384C260.009 65.4933 259.757 66.4987 259.255 67.4C258.752 68.284 258.033 68.986 257.097 69.506C256.178 70.026 255.112 70.286 253.899 70.286C252.72 70.286 251.663 70.052 250.727 69.584C249.791 69.0987 249.054 68.414 248.517 67.53C247.997 66.6287 247.737 65.58 247.737 64.384ZM250.675 64.41C250.675 65.398 250.978 66.23 251.585 66.906C252.191 67.5647 252.945 67.894 253.847 67.894C254.783 67.894 255.545 67.5647 256.135 66.906C256.741 66.2473 257.045 65.4153 257.045 64.41C257.045 63.4047 256.741 62.5727 256.135 61.914C255.545 61.238 254.783 60.9 253.847 60.9C252.945 60.9 252.191 61.2467 251.585 61.94C250.978 62.616 250.675 63.4393 250.675 64.41ZM264.03 61.55H262.158V58.976H264.03V54.66C264.03 53.1173 264.42 51.9127 265.2 51.046C265.98 50.1793 267.098 49.746 268.554 49.746C268.988 49.746 269.456 49.8153 269.958 49.954C270.461 50.0753 270.894 50.2573 271.258 50.5L270.036 52.606C269.742 52.294 269.352 52.138 268.866 52.138C267.584 52.138 266.942 53.0047 266.942 54.738V58.976H270.374V61.55H266.942V70H264.03V61.55ZM280.947 64.384C280.947 63.292 281.207 62.2953 281.727 61.394C282.265 60.4927 283.001 59.7907 283.937 59.288C284.873 58.768 285.939 58.508 287.135 58.508C288.331 58.508 289.389 58.768 290.307 59.288C291.243 59.7907 291.963 60.4927 292.465 61.394C292.968 62.278 293.219 63.2747 293.219 64.384C293.219 65.4933 292.968 66.4987 292.465 67.4C291.963 68.284 291.243 68.986 290.307 69.506C289.389 70.026 288.323 70.286 287.109 70.286C285.931 70.286 284.873 70.052 283.937 69.584C283.001 69.0987 282.265 68.414 281.727 67.53C281.207 66.6287 280.947 65.58 280.947 64.384ZM283.885 64.41C283.885 65.398 284.189 66.23 284.795 66.906C285.402 67.5647 286.156 67.894 287.057 67.894C287.993 67.894 288.756 67.5647 289.345 66.906C289.952 66.2473 290.255 65.4153 290.255 64.41C290.255 63.4047 289.952 62.5727 289.345 61.914C288.756 61.238 287.993 60.9 287.057 60.9C286.156 60.9 285.402 61.2467 284.795 61.94C284.189 62.616 283.885 63.4393 283.885 64.41ZM306.792 59.002L299.694 75.278H296.834L299.408 69.532L294.312 59.002H297.588L300.864 66.282L304.14 59.002H306.792ZM312.48 70.234C311.63 70.234 310.824 70.0867 310.062 69.792C309.316 69.48 308.701 69.0467 308.216 68.492L309.438 66.854C310.356 67.7553 311.292 68.206 312.246 68.206C312.766 68.206 313.19 68.1107 313.52 67.92C313.866 67.712 314.04 67.4087 314.04 67.01C314.04 66.594 313.866 66.282 313.52 66.074C313.173 65.866 312.783 65.7013 312.35 65.58C311.934 65.4413 311.665 65.3547 311.544 65.32C310.59 65.0253 309.88 64.6007 309.412 64.046C308.944 63.474 308.71 62.8067 308.71 62.044C308.71 61.4373 308.857 60.874 309.152 60.354C309.464 59.8167 309.923 59.3833 310.53 59.054C311.154 58.7247 311.908 58.56 312.792 58.56C313.624 58.56 314.343 58.6553 314.95 58.846C315.574 59.0367 316.154 59.34 316.692 59.756L315.574 61.498C315.262 61.2033 314.88 60.9693 314.43 60.796C313.996 60.6227 313.598 60.536 313.234 60.536C312.783 60.536 312.41 60.64 312.116 60.848C311.821 61.056 311.674 61.3247 311.674 61.654C311.656 62.0527 311.804 62.356 312.116 62.564C312.428 62.7547 312.93 62.9627 313.624 63.188C313.918 63.2747 314.109 63.3353 314.196 63.37C315.062 63.6473 315.738 64.0373 316.224 64.54C316.709 65.0253 316.952 65.6667 316.952 66.464C316.952 67.5387 316.562 68.44 315.782 69.168C315.019 69.8787 313.918 70.234 312.48 70.234ZM324.15 54.166V59.002H327.01V61.29H324.15V70H321.238V61.29H319.34V59.002H321.238V54.166H324.15ZM335.175 67.79C335.99 67.79 336.813 67.504 337.645 66.932L338.971 69.09C338.382 69.454 337.749 69.7487 337.073 69.974C336.397 70.182 335.747 70.286 335.123 70.286C333.858 70.286 332.757 70.0347 331.821 69.532C330.902 69.0293 330.192 68.336 329.689 67.452C329.204 66.568 328.961 65.554 328.961 64.41C328.961 63.3353 329.238 62.3473 329.793 61.446C330.348 60.5447 331.102 59.834 332.055 59.314C333.008 58.7767 334.048 58.508 335.175 58.508C336.666 58.508 337.905 58.95 338.893 59.834C339.881 60.7007 340.54 61.9313 340.869 63.526L332.393 66.386C332.688 66.8367 333.078 67.1833 333.563 67.426C334.048 67.6687 334.586 67.79 335.175 67.79ZM334.941 60.796C334.022 60.796 333.268 61.1167 332.679 61.758C332.107 62.3993 331.821 63.2313 331.821 64.254C331.821 64.4447 331.83 64.592 331.847 64.696L337.619 62.642C337.394 62.1047 337.064 61.6627 336.631 61.316C336.198 60.9693 335.634 60.796 334.941 60.796ZM346.568 61.55C346.863 60.9607 347.279 60.432 347.816 59.964C348.354 59.496 348.9 59.1407 349.454 58.898C350.026 58.638 350.503 58.508 350.884 58.508L350.754 61.42C349.957 61.3507 349.246 61.498 348.622 61.862C347.998 62.2087 347.513 62.694 347.166 63.318C346.82 63.9247 346.646 64.5747 346.646 65.268V70H343.734V59.002H346.36L346.568 61.55ZM357.167 70.234C356.318 70.234 355.512 70.0867 354.749 69.792C354.004 69.48 353.389 69.0467 352.903 68.492L354.125 66.854C355.044 67.7553 355.98 68.206 356.933 68.206C357.453 68.206 357.878 68.1107 358.207 67.92C358.554 67.712 358.727 67.4087 358.727 67.01C358.727 66.594 358.554 66.282 358.207 66.074C357.861 65.866 357.471 65.7013 357.037 65.58C356.621 65.4413 356.353 65.3547 356.231 65.32C355.278 65.0253 354.567 64.6007 354.099 64.046C353.631 63.474 353.397 62.8067 353.397 62.044C353.397 61.4373 353.545 60.874 353.839 60.354C354.151 59.8167 354.611 59.3833 355.217 59.054C355.841 58.7247 356.595 58.56 357.479 58.56C358.311 58.56 359.031 58.6553 359.637 58.846C360.261 59.0367 360.842 59.34 361.379 59.756L360.261 61.498C359.949 61.2033 359.568 60.9693 359.117 60.796C358.684 60.6227 358.285 60.536 357.921 60.536C357.471 60.536 357.098 60.64 356.803 60.848C356.509 61.056 356.361 61.3247 356.361 61.654C356.344 62.0527 356.491 62.356 356.803 62.564C357.115 62.7547 357.618 62.9627 358.311 63.188C358.606 63.2747 358.797 63.3353 358.883 63.37C359.75 63.6473 360.426 64.0373 360.911 64.54C361.397 65.0253 361.639 65.6667 361.639 66.464C361.639 67.5387 361.249 68.44 360.469 69.168C359.707 69.8787 358.606 70.234 357.167 70.234ZM5.98 96.166V101.002H8.84V103.29H5.98V112H3.068V103.29H1.17V101.002H3.068V96.166H5.98ZM18.8772 100.534C19.8999 100.534 20.7492 100.846 21.4252 101.47C22.1186 102.077 22.4739 102.865 22.4912 103.836V112H19.5792V104.876C19.5446 104.304 19.3712 103.853 19.0592 103.524C18.7646 103.195 18.3139 103.021 17.7072 103.004C16.8059 103.004 16.0606 103.394 15.4712 104.174C14.8992 104.954 14.6132 105.933 14.6132 107.112V112H11.7012V91.72H14.5612V102.874C14.9772 102.163 15.5492 101.6 16.2772 101.184C17.0226 100.751 17.8892 100.534 18.8772 100.534ZM31.808 109.79C32.6226 109.79 33.446 109.504 34.278 108.932L35.604 111.09C35.0146 111.454 34.382 111.749 33.706 111.974C33.03 112.182 32.38 112.286 31.756 112.286C30.4906 112.286 29.39 112.035 28.454 111.532C27.5353 111.029 26.8246 110.336 26.322 109.452C25.8366 108.568 25.594 107.554 25.594 106.41C25.594 105.335 25.8713 104.347 26.426 103.446C26.9806 102.545 27.7346 101.834 28.688 101.314C29.6413 100.777 30.6813 100.508 31.808 100.508C33.2986 100.508 34.538 100.95 35.526 101.834C36.514 102.701 37.1726 103.931 37.502 105.526L29.026 108.386C29.3206 108.837 29.7106 109.183 30.196 109.426C30.6813 109.669 31.2186 109.79 31.808 109.79ZM31.574 102.796C30.6553 102.796 29.9013 103.117 29.312 103.758C28.74 104.399 28.454 105.231 28.454 106.254C28.454 106.445 28.4626 106.592 28.48 106.696L34.252 104.642C34.0266 104.105 33.6973 103.663 33.264 103.316C32.8306 102.969 32.2673 102.796 31.574 102.796ZM51.6074 91.72V112H48.6954V91.72H51.6074ZM67.1196 101.002V112H64.2076V110.414C63.8089 110.882 63.2716 111.315 62.5956 111.714C61.9196 112.095 61.1309 112.286 60.2296 112.286C59.1723 112.286 58.2276 112.069 57.3956 111.636C56.5636 111.185 55.9049 110.527 55.4196 109.66C54.9343 108.793 54.6916 107.745 54.6916 106.514C54.6916 105.318 54.9429 104.269 55.4456 103.368C55.9483 102.449 56.6156 101.747 57.4476 101.262C58.2969 100.759 59.2243 100.508 60.2296 100.508C62.0149 100.508 63.3496 101.167 64.2336 102.484L64.4416 101.002H67.1196ZM61.0356 109.894C61.8329 109.894 62.5003 109.695 63.0376 109.296C63.5923 108.88 63.9823 108.299 64.2076 107.554V105.162C63.9996 104.486 63.5923 103.94 62.9856 103.524C62.3963 103.108 61.7116 102.9 60.9316 102.9C60.0129 102.9 59.2329 103.229 58.5916 103.888C57.9503 104.529 57.6296 105.353 57.6296 106.358C57.6296 107.017 57.7856 107.615 58.0976 108.152C58.4096 108.689 58.8256 109.114 59.3456 109.426C59.8656 109.738 60.4289 109.894 61.0356 109.894ZM73.9747 103.55C74.2693 102.961 74.6853 102.432 75.2227 101.964C75.76 101.496 76.306 101.141 76.8607 100.898C77.4327 100.638 77.9093 100.508 78.2907 100.508L78.1607 103.42C77.3633 103.351 76.6527 103.498 76.0287 103.862C75.4047 104.209 74.9193 104.694 74.5727 105.318C74.226 105.925 74.0527 106.575 74.0527 107.268V112H71.1407V101.002H73.7667L73.9747 103.55ZM92.6971 101.002V112.052C92.6971 113.075 92.4198 113.993 91.8651 114.808C91.3278 115.64 90.5651 116.29 89.5771 116.758C88.6064 117.243 87.5058 117.486 86.2751 117.486C85.0791 117.486 84.0824 117.295 83.2851 116.914C82.4878 116.55 81.6818 116.013 80.8671 115.302L82.5831 113.3C83.1378 113.82 83.7011 114.219 84.2731 114.496C84.8451 114.791 85.4951 114.938 86.2231 114.938C87.2978 114.938 88.1558 114.669 88.7971 114.132C89.4384 113.612 89.7678 112.901 89.7851 112V110.154C89.4038 110.795 88.8318 111.315 88.0691 111.714C87.3238 112.095 86.4484 112.286 85.4431 112.286C84.4378 112.286 83.5104 112.035 82.6611 111.532C81.8118 111.012 81.1358 110.31 80.6331 109.426C80.1304 108.525 79.8791 107.528 79.8791 106.436C79.8791 105.327 80.1391 104.321 80.6591 103.42C81.1964 102.501 81.8984 101.791 82.7651 101.288C83.6491 100.768 84.5851 100.508 85.5731 100.508C86.4918 100.508 87.3238 100.673 88.0691 101.002C88.8318 101.314 89.4038 101.73 89.7851 102.25L90.0191 101.002H92.6971ZM86.3011 109.894C87.1504 109.894 87.8784 109.686 88.4851 109.27C89.1091 108.854 89.5424 108.291 89.7851 107.58V105.188C89.5424 104.495 89.1091 103.94 88.4851 103.524C87.8611 103.108 87.1331 102.9 86.3011 102.9C85.3131 102.9 84.4811 103.229 83.8051 103.888C83.1464 104.529 82.8171 105.353 82.8171 106.358C82.8171 107.017 82.9731 107.615 83.2851 108.152C83.5971 108.689 84.0131 109.114 84.5331 109.426C85.0704 109.738 85.6598 109.894 86.3011 109.894ZM102.013 109.79C102.828 109.79 103.651 109.504 104.483 108.932L105.809 111.09C105.22 111.454 104.587 111.749 103.911 111.974C103.235 112.182 102.585 112.286 101.961 112.286C100.696 112.286 99.595 112.035 98.659 111.532C97.7404 111.029 97.0297 110.336 96.527 109.452C96.0417 108.568 95.799 107.554 95.799 106.41C95.799 105.335 96.0764 104.347 96.631 103.446C97.1857 102.545 97.9397 101.834 98.893 101.314C99.8464 100.777 100.886 100.508 102.013 100.508C103.504 100.508 104.743 100.95 105.731 101.834C106.719 102.701 107.378 103.931 107.707 105.526L99.231 108.386C99.5257 108.837 99.9157 109.183 100.401 109.426C100.886 109.669 101.424 109.79 102.013 109.79ZM101.779 102.796C100.86 102.796 100.106 103.117 99.517 103.758C98.945 104.399 98.659 105.231 98.659 106.254C98.659 106.445 98.6677 106.592 98.685 106.696L104.457 104.642C104.232 104.105 103.902 103.663 103.469 103.316C103.036 102.969 102.472 102.796 101.779 102.796ZM113.874 112.234C113.025 112.234 112.219 112.087 111.456 111.792C110.711 111.48 110.096 111.047 109.61 110.492L110.832 108.854C111.751 109.755 112.687 110.206 113.64 110.206C114.16 110.206 114.585 110.111 114.914 109.92C115.261 109.712 115.434 109.409 115.434 109.01C115.434 108.594 115.261 108.282 114.914 108.074C114.568 107.866 114.178 107.701 113.744 107.58C113.328 107.441 113.06 107.355 112.938 107.32C111.985 107.025 111.274 106.601 110.806 106.046C110.338 105.474 110.104 104.807 110.104 104.044C110.104 103.437 110.252 102.874 110.546 102.354C110.858 101.817 111.318 101.383 111.924 101.054C112.548 100.725 113.302 100.56 114.186 100.56C115.018 100.56 115.738 100.655 116.344 100.846C116.968 101.037 117.549 101.34 118.086 101.756L116.968 103.498C116.656 103.203 116.275 102.969 115.824 102.796C115.391 102.623 114.992 102.536 114.628 102.536C114.178 102.536 113.805 102.64 113.51 102.848C113.216 103.056 113.068 103.325 113.068 103.654C113.051 104.053 113.198 104.356 113.51 104.564C113.822 104.755 114.325 104.963 115.018 105.188C115.313 105.275 115.504 105.335 115.59 105.37C116.457 105.647 117.133 106.037 117.618 106.54C118.104 107.025 118.346 107.667 118.346 108.464C118.346 109.539 117.956 110.44 117.176 111.168C116.414 111.879 115.313 112.234 113.874 112.234ZM125.544 96.166V101.002H128.404V103.29H125.544V112H122.632V103.29H120.734V101.002H122.632V96.166H125.544ZM142.896 112.234C142.046 112.234 141.24 112.087 140.478 111.792C139.732 111.48 139.117 111.047 138.632 110.492L139.854 108.854C140.772 109.755 141.708 110.206 142.662 110.206C143.182 110.206 143.606 110.111 143.936 109.92C144.282 109.712 144.456 109.409 144.456 109.01C144.456 108.594 144.282 108.282 143.936 108.074C143.589 107.866 143.199 107.701 142.766 107.58C142.35 107.441 142.081 107.355 141.96 107.32C141.006 107.025 140.296 106.601 139.828 106.046C139.36 105.474 139.126 104.807 139.126 104.044C139.126 103.437 139.273 102.874 139.568 102.354C139.88 101.817 140.339 101.383 140.946 101.054C141.57 100.725 142.324 100.56 143.208 100.56C144.04 100.56 144.759 100.655 145.366 100.846C145.99 101.037 146.57 101.34 147.108 101.756L145.99 103.498C145.678 103.203 145.296 102.969 144.846 102.796C144.412 102.623 144.014 102.536 143.65 102.536C143.199 102.536 142.826 102.64 142.532 102.848C142.237 103.056 142.09 103.325 142.09 103.654C142.072 104.053 142.22 104.356 142.532 104.564C142.844 104.755 143.346 104.963 144.04 105.188C144.334 105.275 144.525 105.335 144.612 105.37C145.478 105.647 146.154 106.037 146.64 106.54C147.125 107.025 147.368 107.667 147.368 108.464C147.368 109.539 146.978 110.44 146.198 111.168C145.435 111.879 144.334 112.234 142.896 112.234ZM155.892 109.79C156.707 109.79 157.53 109.504 158.362 108.932L159.688 111.09C159.099 111.454 158.466 111.749 157.79 111.974C157.114 112.182 156.464 112.286 155.84 112.286C154.575 112.286 153.474 112.035 152.538 111.532C151.619 111.029 150.909 110.336 150.406 109.452C149.921 108.568 149.678 107.554 149.678 106.41C149.678 105.335 149.955 104.347 150.51 103.446C151.065 102.545 151.819 101.834 152.772 101.314C153.725 100.777 154.765 100.508 155.892 100.508C157.383 100.508 158.622 100.95 159.61 101.834C160.598 102.701 161.257 103.931 161.586 105.526L153.11 108.386C153.405 108.837 153.795 109.183 154.28 109.426C154.765 109.669 155.303 109.79 155.892 109.79ZM155.658 102.796C154.739 102.796 153.985 103.117 153.396 103.758C152.824 104.399 152.538 105.231 152.538 106.254C152.538 106.445 152.547 106.592 152.564 106.696L158.336 104.642C158.111 104.105 157.781 103.663 157.348 103.316C156.915 102.969 156.351 102.796 155.658 102.796ZM167.363 91.72V112H164.451V91.72H167.363ZM176.661 109.79C177.476 109.79 178.299 109.504 179.131 108.932L180.457 111.09C179.868 111.454 179.235 111.749 178.559 111.974C177.883 112.182 177.233 112.286 176.609 112.286C175.344 112.286 174.243 112.035 173.307 111.532C172.389 111.029 171.678 110.336 171.175 109.452C170.69 108.568 170.447 107.554 170.447 106.41C170.447 105.335 170.725 104.347 171.279 103.446C171.834 102.545 172.588 101.834 173.541 101.314C174.495 100.777 175.535 100.508 176.661 100.508C178.152 100.508 179.391 100.95 180.379 101.834C181.367 102.701 182.026 103.931 182.355 105.526L173.879 108.386C174.174 108.837 174.564 109.183 175.049 109.426C175.535 109.669 176.072 109.79 176.661 109.79ZM176.427 102.796C175.509 102.796 174.755 103.117 174.165 103.758C173.593 104.399 173.307 105.231 173.307 106.254C173.307 106.445 173.316 106.592 173.333 106.696L179.105 104.642C178.88 104.105 178.551 103.663 178.117 103.316C177.684 102.969 177.121 102.796 176.427 102.796ZM194.321 110.986C193.835 111.385 193.237 111.705 192.527 111.948C191.833 112.173 191.131 112.286 190.421 112.286C189.207 112.286 188.133 112.052 187.197 111.584C186.278 111.116 185.567 110.449 185.065 109.582C184.562 108.698 184.311 107.667 184.311 106.488C184.311 105.327 184.579 104.313 185.117 103.446C185.654 102.562 186.365 101.886 187.249 101.418C188.15 100.95 189.112 100.716 190.135 100.716C191.868 100.716 193.298 101.184 194.425 102.12L192.969 104.018C192.639 103.758 192.249 103.541 191.799 103.368C191.365 103.177 190.897 103.082 190.395 103.082C189.511 103.082 188.757 103.411 188.133 104.07C187.526 104.711 187.223 105.517 187.223 106.488C187.223 107.459 187.543 108.273 188.185 108.932C188.843 109.573 189.675 109.894 190.681 109.894C191.547 109.894 192.275 109.651 192.865 109.166L194.321 110.986ZM201.285 96.166V101.002H204.145V103.29H201.285V112H198.373V103.29H196.475V101.002H198.373V96.166H201.285ZM209.918 101.002V112H207.006V101.002H209.918ZM206.876 97.076C206.876 96.6427 207.049 96.2787 207.396 95.984C207.743 95.672 208.133 95.516 208.566 95.516C208.982 95.516 209.355 95.672 209.684 95.984C210.031 96.2787 210.204 96.6427 210.204 97.076C210.204 97.5093 210.031 97.8733 209.684 98.168C209.355 98.4627 208.982 98.61 208.566 98.61C208.133 98.61 207.743 98.4627 207.396 98.168C207.049 97.8733 206.876 97.5093 206.876 97.076ZM213.002 106.384C213.002 105.292 213.262 104.295 213.782 103.394C214.319 102.493 215.056 101.791 215.992 101.288C216.928 100.768 217.994 100.508 219.19 100.508C220.386 100.508 221.443 100.768 222.362 101.288C223.298 101.791 224.017 102.493 224.52 103.394C225.023 104.278 225.274 105.275 225.274 106.384C225.274 107.493 225.023 108.499 224.52 109.4C224.017 110.284 223.298 110.986 222.362 111.506C221.443 112.026 220.377 112.286 219.164 112.286C217.985 112.286 216.928 112.052 215.992 111.584C215.056 111.099 214.319 110.414 213.782 109.53C213.262 108.629 213.002 107.58 213.002 106.384ZM215.94 106.41C215.94 107.398 216.243 108.23 216.85 108.906C217.457 109.565 218.211 109.894 219.112 109.894C220.048 109.894 220.811 109.565 221.4 108.906C222.007 108.247 222.31 107.415 222.31 106.41C222.31 105.405 222.007 104.573 221.4 103.914C220.811 103.238 220.048 102.9 219.112 102.9C218.211 102.9 217.457 103.247 216.85 103.94C216.243 104.616 215.94 105.439 215.94 106.41ZM235.51 100.534C236.533 100.534 237.382 100.846 238.058 101.47C238.751 102.077 239.107 102.865 239.124 103.836V112H236.212V104.876C236.177 104.304 236.004 103.853 235.692 103.524C235.397 103.195 234.947 103.021 234.34 103.004C233.439 103.004 232.693 103.394 232.104 104.174C231.532 104.937 231.246 105.916 231.246 107.112V112H228.334V101.002H230.96L231.168 102.952C231.567 102.189 232.139 101.6 232.884 101.184C233.647 100.751 234.522 100.534 235.51 100.534ZM250.555 106.384C250.555 105.292 250.815 104.295 251.335 103.394C251.872 102.493 252.609 101.791 253.545 101.288C254.481 100.768 255.547 100.508 256.743 100.508C257.939 100.508 258.996 100.768 259.915 101.288C260.851 101.791 261.57 102.493 262.073 103.394C262.576 104.278 262.827 105.275 262.827 106.384C262.827 107.493 262.576 108.499 262.073 109.4C261.57 110.284 260.851 110.986 259.915 111.506C258.996 112.026 257.93 112.286 256.717 112.286C255.538 112.286 254.481 112.052 253.545 111.584C252.609 111.099 251.872 110.414 251.335 109.53C250.815 108.629 250.555 107.58 250.555 106.384ZM253.493 106.41C253.493 107.398 253.796 108.23 254.403 108.906C255.01 109.565 255.764 109.894 256.665 109.894C257.601 109.894 258.364 109.565 258.953 108.906C259.56 108.247 259.863 107.415 259.863 106.41C259.863 105.405 259.56 104.573 258.953 103.914C258.364 103.238 257.601 102.9 256.665 102.9C255.764 102.9 255.01 103.247 254.403 103.94C253.796 104.616 253.493 105.439 253.493 106.41ZM266.849 103.55H264.977V100.976H266.849V96.66C266.849 95.1173 267.239 93.9127 268.019 93.046C268.799 92.1793 269.917 91.746 271.373 91.746C271.806 91.746 272.274 91.8153 272.777 91.954C273.279 92.0753 273.713 92.2573 274.077 92.5L272.855 94.606C272.56 94.294 272.17 94.138 271.685 94.138C270.402 94.138 269.761 95.0047 269.761 96.738V100.976H273.193V103.55H269.761V112H266.849V103.55ZM287.978 112.234C287.128 112.234 286.322 112.087 285.56 111.792C284.814 111.48 284.199 111.047 283.714 110.492L284.936 108.854C285.854 109.755 286.79 110.206 287.744 110.206C288.264 110.206 288.688 110.111 289.018 109.92C289.364 109.712 289.538 109.409 289.538 109.01C289.538 108.594 289.364 108.282 289.018 108.074C288.671 107.866 288.281 107.701 287.848 107.58C287.432 107.441 287.163 107.355 287.042 107.32C286.088 107.025 285.378 106.601 284.91 106.046C284.442 105.474 284.208 104.807 284.208 104.044C284.208 103.437 284.355 102.874 284.65 102.354C284.962 101.817 285.421 101.383 286.028 101.054C286.652 100.725 287.406 100.56 288.29 100.56C289.122 100.56 289.841 100.655 290.448 100.846C291.072 101.037 291.652 101.34 292.19 101.756L291.072 103.498C290.76 103.203 290.378 102.969 289.928 102.796C289.494 102.623 289.096 102.536 288.732 102.536C288.281 102.536 287.908 102.64 287.614 102.848C287.319 103.056 287.172 103.325 287.172 103.654C287.154 104.053 287.302 104.356 287.614 104.564C287.926 104.755 288.428 104.963 289.122 105.188C289.416 105.275 289.607 105.335 289.694 105.37C290.56 105.647 291.236 106.037 291.722 106.54C292.207 107.025 292.45 107.667 292.45 108.464C292.45 109.539 292.06 110.44 291.28 111.168C290.517 111.879 289.416 112.234 287.978 112.234ZM302.898 100.508C303.921 100.508 304.848 100.751 305.68 101.236C306.512 101.721 307.162 102.415 307.63 103.316C308.098 104.217 308.332 105.266 308.332 106.462C308.332 107.641 308.072 108.672 307.552 109.556C307.049 110.44 306.339 111.116 305.42 111.584C304.519 112.052 303.496 112.286 302.352 112.286C301.624 112.286 300.922 112.139 300.246 111.844C299.57 111.549 299.015 111.151 298.582 110.648V117.278H295.67V100.794H298.192L298.452 102.432C299.024 101.843 299.683 101.375 300.428 101.028C301.191 100.681 302.014 100.508 302.898 100.508ZM301.78 109.972C302.421 109.972 303.011 109.825 303.548 109.53C304.103 109.218 304.545 108.802 304.874 108.282C305.203 107.762 305.368 107.173 305.368 106.514C305.368 105.491 305.039 104.651 304.38 103.992C303.739 103.316 302.941 102.978 301.988 102.978C301.139 102.978 300.419 103.186 299.83 103.602C299.258 104.018 298.842 104.599 298.582 105.344V107.554C298.755 108.265 299.128 108.845 299.7 109.296C300.289 109.747 300.983 109.972 301.78 109.972ZM322.93 101.002V112H320.018V110.414C319.619 110.882 319.082 111.315 318.406 111.714C317.73 112.095 316.941 112.286 316.04 112.286C314.983 112.286 314.038 112.069 313.206 111.636C312.374 111.185 311.715 110.527 311.23 109.66C310.745 108.793 310.502 107.745 310.502 106.514C310.502 105.318 310.753 104.269 311.256 103.368C311.759 102.449 312.426 101.747 313.258 101.262C314.107 100.759 315.035 100.508 316.04 100.508C317.825 100.508 319.16 101.167 320.044 102.484L320.252 101.002H322.93ZM316.846 109.894C317.643 109.894 318.311 109.695 318.848 109.296C319.403 108.88 319.793 108.299 320.018 107.554V105.162C319.81 104.486 319.403 103.94 318.796 103.524C318.207 103.108 317.522 102.9 316.742 102.9C315.823 102.9 315.043 103.229 314.402 103.888C313.761 104.529 313.44 105.353 313.44 106.358C313.44 107.017 313.596 107.615 313.908 108.152C314.22 108.689 314.636 109.114 315.156 109.426C315.676 109.738 316.239 109.894 316.846 109.894ZM329.785 103.55C330.08 102.961 330.496 102.432 331.033 101.964C331.571 101.496 332.117 101.141 332.671 100.898C333.243 100.638 333.72 100.508 334.101 100.508L333.971 103.42C333.174 103.351 332.463 103.498 331.839 103.862C331.215 104.209 330.73 104.694 330.383 105.318C330.037 105.925 329.863 106.575 329.863 107.268V112H326.951V101.002H329.577L329.785 103.55ZM341.268 107.008L339.994 107.996V112H337.082V91.72H339.994V104.98L345.506 100.742L347.274 102.302L343.27 105.422L347.742 112H344.362L341.268 107.008ZM353.451 91.72V112H350.539V91.72H353.451ZM362.749 109.79C363.564 109.79 364.387 109.504 365.219 108.932L366.545 111.09C365.956 111.454 365.323 111.749 364.647 111.974C363.971 112.182 363.321 112.286 362.697 112.286C361.432 112.286 360.331 112.035 359.395 111.532C358.477 111.029 357.766 110.336 357.263 109.452C356.778 108.568 356.535 107.554 356.535 106.41C356.535 105.335 356.813 104.347 357.367 103.446C357.922 102.545 358.676 101.834 359.629 101.314C360.583 100.777 361.623 100.508 362.749 100.508C364.24 100.508 365.479 100.95 366.467 101.834C367.455 102.701 368.114 103.931 368.443 105.526L359.967 108.386C360.262 108.837 360.652 109.183 361.137 109.426C361.623 109.669 362.16 109.79 362.749 109.79ZM362.515 102.796C361.597 102.796 360.843 103.117 360.253 103.758C359.681 104.399 359.395 105.231 359.395 106.254C359.395 106.445 359.404 106.592 359.421 106.696L365.193 104.642C364.968 104.105 364.639 103.663 364.205 103.316C363.772 102.969 363.209 102.796 362.515 102.796ZM374.611 112.234C373.761 112.234 372.955 112.087 372.193 111.792C371.447 111.48 370.832 111.047 370.347 110.492L371.569 108.854C372.487 109.755 373.423 110.206 374.377 110.206C374.897 110.206 375.321 110.111 375.651 109.92C375.997 109.712 376.171 109.409 376.171 109.01C376.171 108.594 375.997 108.282 375.651 108.074C375.304 107.866 374.914 107.701 374.481 107.58C374.065 107.441 373.796 107.355 373.675 107.32C372.721 107.025 372.011 106.601 371.543 106.046C371.075 105.474 370.841 104.807 370.841 104.044C370.841 103.437 370.988 102.874 371.283 102.354C371.595 101.817 372.054 101.383 372.661 101.054C373.285 100.725 374.039 100.56 374.923 100.56C375.755 100.56 376.474 100.655 377.081 100.846C377.705 101.037 378.285 101.34 378.823 101.756L377.705 103.498C377.393 103.203 377.011 102.969 376.561 102.796C376.127 102.623 375.729 102.536 375.365 102.536C374.914 102.536 374.541 102.64 374.247 102.848C373.952 103.056 373.805 103.325 373.805 103.654C373.787 104.053 373.935 104.356 374.247 104.564C374.559 104.755 375.061 104.963 375.755 105.188C376.049 105.275 376.24 105.335 376.327 105.37C377.193 105.647 377.869 106.037 378.355 106.54C378.84 107.025 379.083 107.667 379.083 108.464C379.083 109.539 378.693 110.44 377.913 111.168C377.15 111.879 376.049 112.234 374.611 112.234ZM393.543 101.002V112H390.631V101.002H393.543ZM390.501 97.076C390.501 96.6427 390.674 96.2787 391.021 95.984C391.368 95.672 391.758 95.516 392.191 95.516C392.607 95.516 392.98 95.672 393.309 95.984C393.656 96.2787 393.829 96.6427 393.829 97.076C393.829 97.5093 393.656 97.8733 393.309 98.168C392.98 98.4627 392.607 98.61 392.191 98.61C391.758 98.61 391.368 98.4627 391.021 98.168C390.674 97.8733 390.501 97.5093 390.501 97.076ZM404.713 100.534C405.736 100.534 406.585 100.846 407.261 101.47C407.954 102.077 408.31 102.865 408.327 103.836V112H405.415V104.876C405.38 104.304 405.207 103.853 404.895 103.524C404.6 103.195 404.15 103.021 403.543 103.004C402.642 103.004 401.896 103.394 401.307 104.174C400.735 104.937 400.449 105.916 400.449 107.112V112H397.537V101.002H400.163L400.371 102.952C400.77 102.189 401.342 101.6 402.087 101.184C402.85 100.751 403.725 100.534 404.713 100.534ZM424.646 96.166V101.002H427.506V103.29H424.646V112H421.734V103.29H419.836V101.002H421.734V96.166H424.646ZM437.543 100.534C438.566 100.534 439.415 100.846 440.091 101.47C440.785 102.077 441.14 102.865 441.157 103.836V112H438.245V104.876C438.211 104.304 438.037 103.853 437.725 103.524C437.431 103.195 436.98 103.021 436.373 103.004C435.472 103.004 434.727 103.394 434.137 104.174C433.565 104.954 433.279 105.933 433.279 107.112V112H430.367V91.72H433.227V102.874C433.643 102.163 434.215 101.6 434.943 101.184C435.689 100.751 436.555 100.534 437.543 100.534ZM450.474 109.79C451.289 109.79 452.112 109.504 452.944 108.932L454.27 111.09C453.681 111.454 453.048 111.749 452.372 111.974C451.696 112.182 451.046 112.286 450.422 112.286C449.157 112.286 448.056 112.035 447.12 111.532C446.201 111.029 445.491 110.336 444.988 109.452C444.503 108.568 444.26 107.554 444.26 106.41C444.26 105.335 444.537 104.347 445.092 103.446C445.647 102.545 446.401 101.834 447.354 101.314C448.307 100.777 449.347 100.508 450.474 100.508C451.965 100.508 453.204 100.95 454.192 101.834C455.18 102.701 455.839 103.931 456.168 105.526L447.692 108.386C447.987 108.837 448.377 109.183 448.862 109.426C449.347 109.669 449.885 109.79 450.474 109.79ZM450.24 102.796C449.321 102.796 448.567 103.117 447.978 103.758C447.406 104.399 447.12 105.231 447.12 106.254C447.12 106.445 447.129 106.592 447.146 106.696L452.918 104.642C452.693 104.105 452.363 103.663 451.93 103.316C451.497 102.969 450.933 102.796 450.24 102.796ZM476.461 110.986C475.976 111.385 475.378 111.705 474.667 111.948C473.974 112.173 473.272 112.286 472.561 112.286C471.348 112.286 470.273 112.052 469.337 111.584C468.419 111.116 467.708 110.449 467.205 109.582C466.703 108.698 466.451 107.667 466.451 106.488C466.451 105.327 466.72 104.313 467.257 103.446C467.795 102.562 468.505 101.886 469.389 101.418C470.291 100.95 471.253 100.716 472.275 100.716C474.009 100.716 475.439 101.184 476.565 102.12L475.109 104.018C474.78 103.758 474.39 103.541 473.939 103.368C473.506 103.177 473.038 103.082 472.535 103.082C471.651 103.082 470.897 103.411 470.273 104.07C469.667 104.711 469.363 105.517 469.363 106.488C469.363 107.459 469.684 108.273 470.325 108.932C470.984 109.573 471.816 109.894 472.821 109.894C473.688 109.894 474.416 109.651 475.005 109.166L476.461 110.986ZM482.359 101.002V112H479.447V101.002H482.359ZM479.317 97.076C479.317 96.6427 479.491 96.2787 479.837 95.984C480.184 95.672 480.574 95.516 481.007 95.516C481.423 95.516 481.796 95.672 482.125 95.984C482.472 96.2787 482.645 96.6427 482.645 97.076C482.645 97.5093 482.472 97.8733 482.125 98.168C481.796 98.4627 481.423 98.61 481.007 98.61C480.574 98.61 480.184 98.4627 479.837 98.168C479.491 97.8733 479.317 97.5093 479.317 97.076ZM490.332 96.166V101.002H493.192V103.29H490.332V112H487.42V103.29H485.522V101.002H487.42V96.166H490.332ZM506.921 101.002L499.823 117.278H496.963L499.537 111.532L494.441 101.002H497.717L500.993 108.282L504.269 101.002H506.921Z" fill="#E1B29B"/>
</g>
</svg>
